<mxfile host="Electron" agent="Mozilla/5.0 (Windows NT 10.0; Win64; x64) AppleWebKit/537.36 (KHTML, like Gecko) draw.io/24.7.8 Chrome/128.0.6613.36 Electron/32.0.1 Safari/537.36" version="24.7.8">
  <diagram id="C5RBs43oDa-KdzZeNtuy" name="Page-1">
    <mxGraphModel dx="7384" dy="3552" grid="1" gridSize="10" guides="1" tooltips="1" connect="1" arrows="1" fold="1" page="1" pageScale="1" pageWidth="1700" pageHeight="1100" math="0" shadow="0">
      <root>
        <mxCell id="WIyWlLk6GJQsqaUBKTNV-0" />
        <mxCell id="WIyWlLk6GJQsqaUBKTNV-1" parent="WIyWlLk6GJQsqaUBKTNV-0" />
        <mxCell id="XHm6aKo8EF9p3FRcwdcO-277" value="" style="shape=folder;fontStyle=1;spacingTop=10;tabWidth=80;tabHeight=30;tabPosition=left;html=1;whiteSpace=wrap;" vertex="1" parent="WIyWlLk6GJQsqaUBKTNV-1">
          <mxGeometry x="-200" y="-890" width="1690" height="380" as="geometry" />
        </mxCell>
        <mxCell id="XHm6aKo8EF9p3FRcwdcO-206" value="" style="shape=folder;fontStyle=1;spacingTop=10;tabWidth=80;tabHeight=30;tabPosition=left;html=1;whiteSpace=wrap;" vertex="1" parent="WIyWlLk6GJQsqaUBKTNV-1">
          <mxGeometry x="-1450" y="250" width="3970" height="480" as="geometry" />
        </mxCell>
        <mxCell id="XHm6aKo8EF9p3FRcwdcO-204" value="" style="shape=folder;fontStyle=1;spacingTop=10;tabWidth=40;tabHeight=30;tabPosition=left;html=1;whiteSpace=wrap;" vertex="1" parent="WIyWlLk6GJQsqaUBKTNV-1">
          <mxGeometry x="-1450" y="790" width="4570" height="1070" as="geometry" />
        </mxCell>
        <mxCell id="XHm6aKo8EF9p3FRcwdcO-0" value="App" style="swimlane;fontStyle=1;align=center;verticalAlign=top;childLayout=stackLayout;horizontal=1;startSize=26;horizontalStack=0;resizeParent=1;resizeParentMax=0;resizeLast=0;collapsible=1;marginBottom=0;whiteSpace=wrap;html=1;" vertex="1" parent="WIyWlLk6GJQsqaUBKTNV-1">
          <mxGeometry x="500" y="-90" width="320" height="130" as="geometry">
            <mxRectangle x="340" y="190" width="60" height="30" as="alternateBounds" />
          </mxGeometry>
        </mxCell>
        <mxCell id="XHm6aKo8EF9p3FRcwdcO-1" value="~ navTitle: String&lt;div&gt;~ data: MovieTheatreShowtime&lt;/div&gt;" style="text;strokeColor=none;fillColor=none;align=left;verticalAlign=top;spacingLeft=4;spacingRight=4;overflow=hidden;rotatable=0;points=[[0,0.5],[1,0.5]];portConstraint=eastwest;whiteSpace=wrap;html=1;" vertex="1" parent="XHm6aKo8EF9p3FRcwdcO-0">
          <mxGeometry y="26" width="320" height="44" as="geometry" />
        </mxCell>
        <mxCell id="XHm6aKo8EF9p3FRcwdcO-2" value="" style="line;strokeWidth=1;fillColor=none;align=left;verticalAlign=middle;spacingTop=-1;spacingLeft=3;spacingRight=3;rotatable=0;labelPosition=right;points=[];portConstraint=eastwest;strokeColor=inherit;" vertex="1" parent="XHm6aKo8EF9p3FRcwdcO-0">
          <mxGeometry y="70" width="320" height="8" as="geometry" />
        </mxCell>
        <mxCell id="XHm6aKo8EF9p3FRcwdcO-3" value="~ useEffect():void&lt;div&gt;~ setData(mappedData: MovieTheatreShowtime): void&lt;br&gt;&lt;div&gt;&lt;br&gt;&lt;/div&gt;&lt;/div&gt;" style="text;strokeColor=none;fillColor=none;align=left;verticalAlign=top;spacingLeft=4;spacingRight=4;overflow=hidden;rotatable=0;points=[[0,0.5],[1,0.5]];portConstraint=eastwest;whiteSpace=wrap;html=1;" vertex="1" parent="XHm6aKo8EF9p3FRcwdcO-0">
          <mxGeometry y="78" width="320" height="52" as="geometry" />
        </mxCell>
        <mxCell id="XHm6aKo8EF9p3FRcwdcO-8" value="Cart" style="swimlane;fontStyle=1;align=center;verticalAlign=top;childLayout=stackLayout;horizontal=1;startSize=26;horizontalStack=0;resizeParent=1;resizeParentMax=0;resizeLast=0;collapsible=1;marginBottom=0;whiteSpace=wrap;html=1;" vertex="1" parent="WIyWlLk6GJQsqaUBKTNV-1">
          <mxGeometry x="-1380" y="425" width="410" height="180" as="geometry" />
        </mxCell>
        <mxCell id="XHm6aKo8EF9p3FRcwdcO-9" value="+ cart: Cart&lt;div&gt;~ navigate: NavigateFunction&lt;/div&gt;&lt;div&gt;+ token: String&lt;/div&gt;&lt;div&gt;+ data: MovieTheatreShowtime&lt;/div&gt;" style="text;strokeColor=none;fillColor=none;align=left;verticalAlign=top;spacingLeft=4;spacingRight=4;overflow=hidden;rotatable=0;points=[[0,0.5],[1,0.5]];portConstraint=eastwest;whiteSpace=wrap;html=1;" vertex="1" parent="XHm6aKo8EF9p3FRcwdcO-8">
          <mxGeometry y="26" width="410" height="74" as="geometry" />
        </mxCell>
        <mxCell id="XHm6aKo8EF9p3FRcwdcO-10" value="" style="line;strokeWidth=1;fillColor=none;align=left;verticalAlign=middle;spacingTop=-1;spacingLeft=3;spacingRight=3;rotatable=0;labelPosition=right;points=[];portConstraint=eastwest;strokeColor=inherit;" vertex="1" parent="XHm6aKo8EF9p3FRcwdcO-8">
          <mxGeometry y="100" width="410" height="8" as="geometry" />
        </mxCell>
        <mxCell id="XHm6aKo8EF9p3FRcwdcO-11" value="~ useEffect(): void&lt;div&gt;~ cartList(): HTML&lt;/div&gt;&lt;div&gt;~ findShowtimeId(theatreName: String, showtimeDateTime: Date):int&lt;/div&gt;&lt;div&gt;~ setCart(cart: Cart): void&lt;/div&gt;" style="text;strokeColor=none;fillColor=none;align=left;verticalAlign=top;spacingLeft=4;spacingRight=4;overflow=hidden;rotatable=0;points=[[0,0.5],[1,0.5]];portConstraint=eastwest;whiteSpace=wrap;html=1;" vertex="1" parent="XHm6aKo8EF9p3FRcwdcO-8">
          <mxGeometry y="108" width="410" height="72" as="geometry" />
        </mxCell>
        <mxCell id="XHm6aKo8EF9p3FRcwdcO-12" value="Login" style="swimlane;fontStyle=1;align=center;verticalAlign=top;childLayout=stackLayout;horizontal=1;startSize=26;horizontalStack=0;resizeParent=1;resizeParentMax=0;resizeLast=0;collapsible=1;marginBottom=0;whiteSpace=wrap;html=1;" vertex="1" parent="WIyWlLk6GJQsqaUBKTNV-1">
          <mxGeometry x="-930" y="425" width="160" height="100" as="geometry" />
        </mxCell>
        <mxCell id="XHm6aKo8EF9p3FRcwdcO-13" value="+ isLoggedIn: Boolean" style="text;strokeColor=none;fillColor=none;align=left;verticalAlign=top;spacingLeft=4;spacingRight=4;overflow=hidden;rotatable=0;points=[[0,0.5],[1,0.5]];portConstraint=eastwest;whiteSpace=wrap;html=1;" vertex="1" parent="XHm6aKo8EF9p3FRcwdcO-12">
          <mxGeometry y="26" width="160" height="26" as="geometry" />
        </mxCell>
        <mxCell id="XHm6aKo8EF9p3FRcwdcO-14" value="" style="line;strokeWidth=1;fillColor=none;align=left;verticalAlign=middle;spacingTop=-1;spacingLeft=3;spacingRight=3;rotatable=0;labelPosition=right;points=[];portConstraint=eastwest;strokeColor=inherit;" vertex="1" parent="XHm6aKo8EF9p3FRcwdcO-12">
          <mxGeometry y="52" width="160" height="8" as="geometry" />
        </mxCell>
        <mxCell id="XHm6aKo8EF9p3FRcwdcO-15" value="+ setIsLoggedIn: void&lt;div&gt;~ handleLogin: void&lt;/div&gt;" style="text;strokeColor=none;fillColor=none;align=left;verticalAlign=top;spacingLeft=4;spacingRight=4;overflow=hidden;rotatable=0;points=[[0,0.5],[1,0.5]];portConstraint=eastwest;whiteSpace=wrap;html=1;" vertex="1" parent="XHm6aKo8EF9p3FRcwdcO-12">
          <mxGeometry y="60" width="160" height="40" as="geometry" />
        </mxCell>
        <mxCell id="XHm6aKo8EF9p3FRcwdcO-16" value="MovieDetails" style="swimlane;fontStyle=1;align=center;verticalAlign=top;childLayout=stackLayout;horizontal=1;startSize=26;horizontalStack=0;resizeParent=1;resizeParentMax=0;resizeLast=0;collapsible=1;marginBottom=0;whiteSpace=wrap;html=1;" vertex="1" parent="WIyWlLk6GJQsqaUBKTNV-1">
          <mxGeometry x="-730" y="425" width="190" height="170" as="geometry" />
        </mxCell>
        <mxCell id="XHm6aKo8EF9p3FRcwdcO-17" value="+ data: MovieTheatreShowtime&lt;div&gt;~ params: &amp;lt;Paramas&amp;gt;Object&lt;/div&gt;&lt;div&gt;~ Navigate: NavigateFunction&lt;br&gt;~ MovieID: int&lt;/div&gt;&lt;div&gt;~ Movie: Movie&lt;/div&gt;&lt;div&gt;&lt;br&gt;&lt;/div&gt;&lt;div&gt;&lt;br&gt;&lt;/div&gt;" style="text;strokeColor=none;fillColor=none;align=left;verticalAlign=top;spacingLeft=4;spacingRight=4;overflow=hidden;rotatable=0;points=[[0,0.5],[1,0.5]];portConstraint=eastwest;whiteSpace=wrap;html=1;" vertex="1" parent="XHm6aKo8EF9p3FRcwdcO-16">
          <mxGeometry y="26" width="190" height="84" as="geometry" />
        </mxCell>
        <mxCell id="XHm6aKo8EF9p3FRcwdcO-18" value="" style="line;strokeWidth=1;fillColor=none;align=left;verticalAlign=middle;spacingTop=-1;spacingLeft=3;spacingRight=3;rotatable=0;labelPosition=right;points=[];portConstraint=eastwest;strokeColor=inherit;" vertex="1" parent="XHm6aKo8EF9p3FRcwdcO-16">
          <mxGeometry y="110" width="190" height="8" as="geometry" />
        </mxCell>
        <mxCell id="XHm6aKo8EF9p3FRcwdcO-19" value="+ setNavTitle(Title:String) void&lt;div&gt;~ useEffect(): void&lt;/div&gt;" style="text;strokeColor=none;fillColor=none;align=left;verticalAlign=top;spacingLeft=4;spacingRight=4;overflow=hidden;rotatable=0;points=[[0,0.5],[1,0.5]];portConstraint=eastwest;whiteSpace=wrap;html=1;" vertex="1" parent="XHm6aKo8EF9p3FRcwdcO-16">
          <mxGeometry y="118" width="190" height="52" as="geometry" />
        </mxCell>
        <mxCell id="XHm6aKo8EF9p3FRcwdcO-20" value="Movies" style="swimlane;fontStyle=1;align=center;verticalAlign=top;childLayout=stackLayout;horizontal=1;startSize=26;horizontalStack=0;resizeParent=1;resizeParentMax=0;resizeLast=0;collapsible=1;marginBottom=0;whiteSpace=wrap;html=1;" vertex="1" parent="WIyWlLk6GJQsqaUBKTNV-1">
          <mxGeometry x="-500" y="432" width="190" height="86" as="geometry" />
        </mxCell>
        <mxCell id="XHm6aKo8EF9p3FRcwdcO-21" value="&lt;div&gt;~ navigate: NavigateFunction&lt;/div&gt;&lt;div&gt;&lt;br&gt;&lt;/div&gt;" style="text;strokeColor=none;fillColor=none;align=left;verticalAlign=top;spacingLeft=4;spacingRight=4;overflow=hidden;rotatable=0;points=[[0,0.5],[1,0.5]];portConstraint=eastwest;whiteSpace=wrap;html=1;" vertex="1" parent="XHm6aKo8EF9p3FRcwdcO-20">
          <mxGeometry y="26" width="190" height="26" as="geometry" />
        </mxCell>
        <mxCell id="XHm6aKo8EF9p3FRcwdcO-22" value="" style="line;strokeWidth=1;fillColor=none;align=left;verticalAlign=middle;spacingTop=-1;spacingLeft=3;spacingRight=3;rotatable=0;labelPosition=right;points=[];portConstraint=eastwest;strokeColor=inherit;" vertex="1" parent="XHm6aKo8EF9p3FRcwdcO-20">
          <mxGeometry y="52" width="190" height="8" as="geometry" />
        </mxCell>
        <mxCell id="XHm6aKo8EF9p3FRcwdcO-23" value="~ useEffect(): void" style="text;strokeColor=none;fillColor=none;align=left;verticalAlign=top;spacingLeft=4;spacingRight=4;overflow=hidden;rotatable=0;points=[[0,0.5],[1,0.5]];portConstraint=eastwest;whiteSpace=wrap;html=1;" vertex="1" parent="XHm6aKo8EF9p3FRcwdcO-20">
          <mxGeometry y="60" width="190" height="26" as="geometry" />
        </mxCell>
        <mxCell id="XHm6aKo8EF9p3FRcwdcO-24" value="MyAccount" style="swimlane;fontStyle=1;align=center;verticalAlign=top;childLayout=stackLayout;horizontal=1;startSize=26;horizontalStack=0;resizeParent=1;resizeParentMax=0;resizeLast=0;collapsible=1;marginBottom=0;whiteSpace=wrap;html=1;" vertex="1" parent="WIyWlLk6GJQsqaUBKTNV-1">
          <mxGeometry x="-260" y="435" width="160" height="34" as="geometry" />
        </mxCell>
        <mxCell id="XHm6aKo8EF9p3FRcwdcO-26" value="" style="line;strokeWidth=1;fillColor=none;align=left;verticalAlign=middle;spacingTop=-1;spacingLeft=3;spacingRight=3;rotatable=0;labelPosition=right;points=[];portConstraint=eastwest;strokeColor=inherit;" vertex="1" parent="XHm6aKo8EF9p3FRcwdcO-24">
          <mxGeometry y="26" width="160" height="8" as="geometry" />
        </mxCell>
        <mxCell id="XHm6aKo8EF9p3FRcwdcO-29" value="PageNotFound" style="swimlane;fontStyle=1;align=center;verticalAlign=top;childLayout=stackLayout;horizontal=1;startSize=26;horizontalStack=0;resizeParent=1;resizeParentMax=0;resizeLast=0;collapsible=1;marginBottom=0;whiteSpace=wrap;html=1;" vertex="1" parent="WIyWlLk6GJQsqaUBKTNV-1">
          <mxGeometry x="-60" y="435" width="160" height="34" as="geometry" />
        </mxCell>
        <mxCell id="XHm6aKo8EF9p3FRcwdcO-31" value="" style="line;strokeWidth=1;fillColor=none;align=left;verticalAlign=middle;spacingTop=-1;spacingLeft=3;spacingRight=3;rotatable=0;labelPosition=right;points=[];portConstraint=eastwest;strokeColor=inherit;" vertex="1" parent="XHm6aKo8EF9p3FRcwdcO-29">
          <mxGeometry y="26" width="160" height="8" as="geometry" />
        </mxCell>
        <mxCell id="XHm6aKo8EF9p3FRcwdcO-33" value="Payment" style="swimlane;fontStyle=1;align=center;verticalAlign=top;childLayout=stackLayout;horizontal=1;startSize=26;horizontalStack=0;resizeParent=1;resizeParentMax=0;resizeLast=0;collapsible=1;marginBottom=0;whiteSpace=wrap;html=1;" vertex="1" parent="WIyWlLk6GJQsqaUBKTNV-1">
          <mxGeometry x="140" y="432" width="190" height="78" as="geometry" />
        </mxCell>
        <mxCell id="XHm6aKo8EF9p3FRcwdcO-34" value="~ location: Location&lt;div&gt;~ fromPaymentCreeator: String&lt;/div&gt;" style="text;strokeColor=none;fillColor=none;align=left;verticalAlign=top;spacingLeft=4;spacingRight=4;overflow=hidden;rotatable=0;points=[[0,0.5],[1,0.5]];portConstraint=eastwest;whiteSpace=wrap;html=1;" vertex="1" parent="XHm6aKo8EF9p3FRcwdcO-33">
          <mxGeometry y="26" width="190" height="44" as="geometry" />
        </mxCell>
        <mxCell id="XHm6aKo8EF9p3FRcwdcO-35" value="" style="line;strokeWidth=1;fillColor=none;align=left;verticalAlign=middle;spacingTop=-1;spacingLeft=3;spacingRight=3;rotatable=0;labelPosition=right;points=[];portConstraint=eastwest;strokeColor=inherit;" vertex="1" parent="XHm6aKo8EF9p3FRcwdcO-33">
          <mxGeometry y="70" width="190" height="8" as="geometry" />
        </mxCell>
        <mxCell id="XHm6aKo8EF9p3FRcwdcO-37" value="PaymentSuccess" style="swimlane;fontStyle=1;align=center;verticalAlign=top;childLayout=stackLayout;horizontal=1;startSize=26;horizontalStack=0;resizeParent=1;resizeParentMax=0;resizeLast=0;collapsible=1;marginBottom=0;whiteSpace=wrap;html=1;" vertex="1" parent="WIyWlLk6GJQsqaUBKTNV-1">
          <mxGeometry x="380" y="435" width="160" height="34" as="geometry" />
        </mxCell>
        <mxCell id="XHm6aKo8EF9p3FRcwdcO-39" value="" style="line;strokeWidth=1;fillColor=none;align=left;verticalAlign=middle;spacingTop=-1;spacingLeft=3;spacingRight=3;rotatable=0;labelPosition=right;points=[];portConstraint=eastwest;strokeColor=inherit;" vertex="1" parent="XHm6aKo8EF9p3FRcwdcO-37">
          <mxGeometry y="26" width="160" height="8" as="geometry" />
        </mxCell>
        <mxCell id="XHm6aKo8EF9p3FRcwdcO-42" value="PaymentFail" style="swimlane;fontStyle=1;align=center;verticalAlign=top;childLayout=stackLayout;horizontal=1;startSize=26;horizontalStack=0;resizeParent=1;resizeParentMax=0;resizeLast=0;collapsible=1;marginBottom=0;whiteSpace=wrap;html=1;" vertex="1" parent="WIyWlLk6GJQsqaUBKTNV-1">
          <mxGeometry x="580" y="435" width="160" height="34" as="geometry" />
        </mxCell>
        <mxCell id="XHm6aKo8EF9p3FRcwdcO-44" value="" style="line;strokeWidth=1;fillColor=none;align=left;verticalAlign=middle;spacingTop=-1;spacingLeft=3;spacingRight=3;rotatable=0;labelPosition=right;points=[];portConstraint=eastwest;strokeColor=inherit;" vertex="1" parent="XHm6aKo8EF9p3FRcwdcO-42">
          <mxGeometry y="26" width="160" height="8" as="geometry" />
        </mxCell>
        <mxCell id="XHm6aKo8EF9p3FRcwdcO-46" value="Premium" style="swimlane;fontStyle=1;align=center;verticalAlign=top;childLayout=stackLayout;horizontal=1;startSize=26;horizontalStack=0;resizeParent=1;resizeParentMax=0;resizeLast=0;collapsible=1;marginBottom=0;whiteSpace=wrap;html=1;" vertex="1" parent="WIyWlLk6GJQsqaUBKTNV-1">
          <mxGeometry x="780" y="435" width="190" height="110" as="geometry" />
        </mxCell>
        <mxCell id="XHm6aKo8EF9p3FRcwdcO-47" value="~ isPremium: Boolean&lt;div&gt;~ navigate: NavigateFunction&lt;/div&gt;" style="text;strokeColor=none;fillColor=none;align=left;verticalAlign=top;spacingLeft=4;spacingRight=4;overflow=hidden;rotatable=0;points=[[0,0.5],[1,0.5]];portConstraint=eastwest;whiteSpace=wrap;html=1;" vertex="1" parent="XHm6aKo8EF9p3FRcwdcO-46">
          <mxGeometry y="26" width="190" height="44" as="geometry" />
        </mxCell>
        <mxCell id="XHm6aKo8EF9p3FRcwdcO-48" value="" style="line;strokeWidth=1;fillColor=none;align=left;verticalAlign=middle;spacingTop=-1;spacingLeft=3;spacingRight=3;rotatable=0;labelPosition=right;points=[];portConstraint=eastwest;strokeColor=inherit;" vertex="1" parent="XHm6aKo8EF9p3FRcwdcO-46">
          <mxGeometry y="70" width="190" height="8" as="geometry" />
        </mxCell>
        <mxCell id="XHm6aKo8EF9p3FRcwdcO-49" value="~ handleSubmit(error: Error): void" style="text;strokeColor=none;fillColor=none;align=left;verticalAlign=top;spacingLeft=4;spacingRight=4;overflow=hidden;rotatable=0;points=[[0,0.5],[1,0.5]];portConstraint=eastwest;whiteSpace=wrap;html=1;" vertex="1" parent="XHm6aKo8EF9p3FRcwdcO-46">
          <mxGeometry y="78" width="190" height="32" as="geometry" />
        </mxCell>
        <mxCell id="XHm6aKo8EF9p3FRcwdcO-50" value="Profile" style="swimlane;fontStyle=1;align=center;verticalAlign=top;childLayout=stackLayout;horizontal=1;startSize=26;horizontalStack=0;resizeParent=1;resizeParentMax=0;resizeLast=0;collapsible=1;marginBottom=0;whiteSpace=wrap;html=1;" vertex="1" parent="WIyWlLk6GJQsqaUBKTNV-1">
          <mxGeometry x="1020" y="435" width="160" height="34" as="geometry" />
        </mxCell>
        <mxCell id="XHm6aKo8EF9p3FRcwdcO-52" value="" style="line;strokeWidth=1;fillColor=none;align=left;verticalAlign=middle;spacingTop=-1;spacingLeft=3;spacingRight=3;rotatable=0;labelPosition=right;points=[];portConstraint=eastwest;strokeColor=inherit;" vertex="1" parent="XHm6aKo8EF9p3FRcwdcO-50">
          <mxGeometry y="26" width="160" height="8" as="geometry" />
        </mxCell>
        <mxCell id="XHm6aKo8EF9p3FRcwdcO-54" value="Register" style="swimlane;fontStyle=1;align=center;verticalAlign=top;childLayout=stackLayout;horizontal=1;startSize=26;horizontalStack=0;resizeParent=1;resizeParentMax=0;resizeLast=0;collapsible=1;marginBottom=0;whiteSpace=wrap;html=1;" vertex="1" parent="WIyWlLk6GJQsqaUBKTNV-1">
          <mxGeometry x="1220" y="435" width="280" height="108" as="geometry" />
        </mxCell>
        <mxCell id="XHm6aKo8EF9p3FRcwdcO-55" value="~ activeButton: ButtonComponent" style="text;strokeColor=none;fillColor=none;align=left;verticalAlign=top;spacingLeft=4;spacingRight=4;overflow=hidden;rotatable=0;points=[[0,0.5],[1,0.5]];portConstraint=eastwest;whiteSpace=wrap;html=1;" vertex="1" parent="XHm6aKo8EF9p3FRcwdcO-54">
          <mxGeometry y="26" width="280" height="24" as="geometry" />
        </mxCell>
        <mxCell id="XHm6aKo8EF9p3FRcwdcO-56" value="" style="line;strokeWidth=1;fillColor=none;align=left;verticalAlign=middle;spacingTop=-1;spacingLeft=3;spacingRight=3;rotatable=0;labelPosition=right;points=[];portConstraint=eastwest;strokeColor=inherit;" vertex="1" parent="XHm6aKo8EF9p3FRcwdcO-54">
          <mxGeometry y="50" width="280" height="8" as="geometry" />
        </mxCell>
        <mxCell id="XHm6aKo8EF9p3FRcwdcO-57" value="~ setActiveButton(): void&lt;div&gt;~ toggleButton(button: ButtonComponent): void&lt;/div&gt;" style="text;strokeColor=none;fillColor=none;align=left;verticalAlign=top;spacingLeft=4;spacingRight=4;overflow=hidden;rotatable=0;points=[[0,0.5],[1,0.5]];portConstraint=eastwest;whiteSpace=wrap;html=1;" vertex="1" parent="XHm6aKo8EF9p3FRcwdcO-54">
          <mxGeometry y="58" width="280" height="50" as="geometry" />
        </mxCell>
        <mxCell id="XHm6aKo8EF9p3FRcwdcO-58" value="Seats" style="swimlane;fontStyle=1;align=center;verticalAlign=top;childLayout=stackLayout;horizontal=1;startSize=26;horizontalStack=0;resizeParent=1;resizeParentMax=0;resizeLast=0;collapsible=1;marginBottom=0;whiteSpace=wrap;html=1;" vertex="1" parent="WIyWlLk6GJQsqaUBKTNV-1">
          <mxGeometry x="1562" y="435" width="270" height="270" as="geometry" />
        </mxCell>
        <mxCell id="XHm6aKo8EF9p3FRcwdcO-59" value="~ data: MovieTheatreShowtime&lt;div&gt;~ cart: Cart&lt;/div&gt;&lt;div&gt;~ seats: &amp;lt;Seat&amp;gt;Array&lt;/div&gt;&lt;div&gt;~ showTimeDetails: Object&lt;/div&gt;&lt;div&gt;~ showTimeId: int&lt;/div&gt;&lt;div&gt;~ showTime: Date&lt;/div&gt;&lt;div&gt;~ navigate: NavigateFunction&lt;/div&gt;&lt;div&gt;~ formattedShowtimeDate: Date&lt;/div&gt;" style="text;strokeColor=none;fillColor=none;align=left;verticalAlign=top;spacingLeft=4;spacingRight=4;overflow=hidden;rotatable=0;points=[[0,0.5],[1,0.5]];portConstraint=eastwest;whiteSpace=wrap;html=1;" vertex="1" parent="XHm6aKo8EF9p3FRcwdcO-58">
          <mxGeometry y="26" width="270" height="124" as="geometry" />
        </mxCell>
        <mxCell id="XHm6aKo8EF9p3FRcwdcO-60" value="" style="line;strokeWidth=1;fillColor=none;align=left;verticalAlign=middle;spacingTop=-1;spacingLeft=3;spacingRight=3;rotatable=0;labelPosition=right;points=[];portConstraint=eastwest;strokeColor=inherit;" vertex="1" parent="XHm6aKo8EF9p3FRcwdcO-58">
          <mxGeometry y="150" width="270" height="8" as="geometry" />
        </mxCell>
        <mxCell id="XHm6aKo8EF9p3FRcwdcO-61" value="~ handleSeatSelection(seat: Seat): void&lt;div&gt;~ isSeatInCart(seatID: int): Boolean&lt;/div&gt;&lt;div&gt;~ useEffect(): void&lt;/div&gt;&lt;div&gt;~ setCart(cart: Cart): void&lt;/div&gt;&lt;div&gt;~ setNavTitle(title: String): void&lt;/div&gt;&lt;div&gt;~ setSeats(seats:&amp;lt;Seat&amp;gt;Array): void&lt;/div&gt;&lt;div&gt;~ setShowtimeDetails(details: Object): void&lt;/div&gt;" style="text;strokeColor=none;fillColor=none;align=left;verticalAlign=top;spacingLeft=4;spacingRight=4;overflow=hidden;rotatable=0;points=[[0,0.5],[1,0.5]];portConstraint=eastwest;whiteSpace=wrap;html=1;" vertex="1" parent="XHm6aKo8EF9p3FRcwdcO-58">
          <mxGeometry y="158" width="270" height="112" as="geometry" />
        </mxCell>
        <mxCell id="XHm6aKo8EF9p3FRcwdcO-62" value="TheaterDetail" style="swimlane;fontStyle=1;align=center;verticalAlign=top;childLayout=stackLayout;horizontal=1;startSize=26;horizontalStack=0;resizeParent=1;resizeParentMax=0;resizeLast=0;collapsible=1;marginBottom=0;whiteSpace=wrap;html=1;" vertex="1" parent="WIyWlLk6GJQsqaUBKTNV-1">
          <mxGeometry x="1881" y="432" width="160" height="34" as="geometry" />
        </mxCell>
        <mxCell id="XHm6aKo8EF9p3FRcwdcO-64" value="" style="line;strokeWidth=1;fillColor=none;align=left;verticalAlign=middle;spacingTop=-1;spacingLeft=3;spacingRight=3;rotatable=0;labelPosition=right;points=[];portConstraint=eastwest;strokeColor=inherit;" vertex="1" parent="XHm6aKo8EF9p3FRcwdcO-62">
          <mxGeometry y="26" width="160" height="8" as="geometry" />
        </mxCell>
        <mxCell id="XHm6aKo8EF9p3FRcwdcO-66" value="Theatres" style="swimlane;fontStyle=1;align=center;verticalAlign=top;childLayout=stackLayout;horizontal=1;startSize=26;horizontalStack=0;resizeParent=1;resizeParentMax=0;resizeLast=0;collapsible=1;marginBottom=0;whiteSpace=wrap;html=1;" vertex="1" parent="WIyWlLk6GJQsqaUBKTNV-1">
          <mxGeometry x="2091" y="432" width="180" height="78" as="geometry" />
        </mxCell>
        <mxCell id="XHm6aKo8EF9p3FRcwdcO-67" value="~ data: MovieTheatreShowtime&lt;div&gt;~ theatres: &amp;lt;Theatre&amp;gt;Array&lt;/div&gt;" style="text;strokeColor=none;fillColor=none;align=left;verticalAlign=top;spacingLeft=4;spacingRight=4;overflow=hidden;rotatable=0;points=[[0,0.5],[1,0.5]];portConstraint=eastwest;whiteSpace=wrap;html=1;" vertex="1" parent="XHm6aKo8EF9p3FRcwdcO-66">
          <mxGeometry y="26" width="180" height="34" as="geometry" />
        </mxCell>
        <mxCell id="XHm6aKo8EF9p3FRcwdcO-68" value="" style="line;strokeWidth=1;fillColor=none;align=left;verticalAlign=middle;spacingTop=-1;spacingLeft=3;spacingRight=3;rotatable=0;labelPosition=right;points=[];portConstraint=eastwest;strokeColor=inherit;" vertex="1" parent="XHm6aKo8EF9p3FRcwdcO-66">
          <mxGeometry y="60" width="180" height="18" as="geometry" />
        </mxCell>
        <mxCell id="XHm6aKo8EF9p3FRcwdcO-70" value="Tickets" style="swimlane;fontStyle=1;align=center;verticalAlign=top;childLayout=stackLayout;horizontal=1;startSize=26;horizontalStack=0;resizeParent=1;resizeParentMax=0;resizeLast=0;collapsible=1;marginBottom=0;whiteSpace=wrap;html=1;" vertex="1" parent="WIyWlLk6GJQsqaUBKTNV-1">
          <mxGeometry x="2311" y="432" width="160" height="86" as="geometry" />
        </mxCell>
        <mxCell id="XHm6aKo8EF9p3FRcwdcO-71" value="+ field: type" style="text;strokeColor=none;fillColor=none;align=left;verticalAlign=top;spacingLeft=4;spacingRight=4;overflow=hidden;rotatable=0;points=[[0,0.5],[1,0.5]];portConstraint=eastwest;whiteSpace=wrap;html=1;" vertex="1" parent="XHm6aKo8EF9p3FRcwdcO-70">
          <mxGeometry y="26" width="160" height="26" as="geometry" />
        </mxCell>
        <mxCell id="XHm6aKo8EF9p3FRcwdcO-72" value="" style="line;strokeWidth=1;fillColor=none;align=left;verticalAlign=middle;spacingTop=-1;spacingLeft=3;spacingRight=3;rotatable=0;labelPosition=right;points=[];portConstraint=eastwest;strokeColor=inherit;" vertex="1" parent="XHm6aKo8EF9p3FRcwdcO-70">
          <mxGeometry y="52" width="160" height="8" as="geometry" />
        </mxCell>
        <mxCell id="XHm6aKo8EF9p3FRcwdcO-73" value="+ method(type): type" style="text;strokeColor=none;fillColor=none;align=left;verticalAlign=top;spacingLeft=4;spacingRight=4;overflow=hidden;rotatable=0;points=[[0,0.5],[1,0.5]];portConstraint=eastwest;whiteSpace=wrap;html=1;" vertex="1" parent="XHm6aKo8EF9p3FRcwdcO-70">
          <mxGeometry y="60" width="160" height="26" as="geometry" />
        </mxCell>
        <mxCell id="XHm6aKo8EF9p3FRcwdcO-76" value="" style="endArrow=diamondThin;html=1;rounded=0;exitX=0.5;exitY=0;exitDx=0;exitDy=0;endFill=1;" edge="1" parent="WIyWlLk6GJQsqaUBKTNV-1" source="XHm6aKo8EF9p3FRcwdcO-37" target="XHm6aKo8EF9p3FRcwdcO-3">
          <mxGeometry width="50" height="50" relative="1" as="geometry">
            <mxPoint x="460" y="430" as="sourcePoint" />
            <mxPoint x="490" y="300" as="targetPoint" />
          </mxGeometry>
        </mxCell>
        <mxCell id="XHm6aKo8EF9p3FRcwdcO-78" value="" style="endArrow=diamondThin;html=1;rounded=0;exitX=0.5;exitY=0;exitDx=0;exitDy=0;endFill=1;" edge="1" parent="WIyWlLk6GJQsqaUBKTNV-1" source="XHm6aKo8EF9p3FRcwdcO-33" target="XHm6aKo8EF9p3FRcwdcO-3">
          <mxGeometry width="50" height="50" relative="1" as="geometry">
            <mxPoint x="230" y="360" as="sourcePoint" />
            <mxPoint x="490" y="300" as="targetPoint" />
          </mxGeometry>
        </mxCell>
        <mxCell id="XHm6aKo8EF9p3FRcwdcO-79" value="" style="endArrow=none;html=1;rounded=0;entryX=0.5;entryY=0;entryDx=0;entryDy=0;endFill=0;startArrow=diamondThin;startFill=1;" edge="1" parent="WIyWlLk6GJQsqaUBKTNV-1" source="XHm6aKo8EF9p3FRcwdcO-3" target="XHm6aKo8EF9p3FRcwdcO-42">
          <mxGeometry width="50" height="50" relative="1" as="geometry">
            <mxPoint x="500" y="250" as="sourcePoint" />
            <mxPoint x="560" y="250" as="targetPoint" />
          </mxGeometry>
        </mxCell>
        <mxCell id="XHm6aKo8EF9p3FRcwdcO-80" value="" style="endArrow=none;html=1;rounded=0;entryX=0.5;entryY=0;entryDx=0;entryDy=0;endFill=0;startArrow=diamondThin;startFill=1;" edge="1" parent="WIyWlLk6GJQsqaUBKTNV-1" source="XHm6aKo8EF9p3FRcwdcO-3" target="XHm6aKo8EF9p3FRcwdcO-46">
          <mxGeometry width="50" height="50" relative="1" as="geometry">
            <mxPoint x="490" y="300" as="sourcePoint" />
            <mxPoint x="810" y="400" as="targetPoint" />
          </mxGeometry>
        </mxCell>
        <mxCell id="XHm6aKo8EF9p3FRcwdcO-81" value="" style="endArrow=none;html=1;rounded=0;entryX=0.5;entryY=0;entryDx=0;entryDy=0;endFill=0;startArrow=diamondThin;startFill=1;" edge="1" parent="WIyWlLk6GJQsqaUBKTNV-1" source="XHm6aKo8EF9p3FRcwdcO-3" target="XHm6aKo8EF9p3FRcwdcO-54">
          <mxGeometry width="50" height="50" relative="1" as="geometry">
            <mxPoint x="490" y="300" as="sourcePoint" />
            <mxPoint x="1290" y="460" as="targetPoint" />
          </mxGeometry>
        </mxCell>
        <mxCell id="XHm6aKo8EF9p3FRcwdcO-82" value="" style="endArrow=none;html=1;rounded=0;entryX=0.5;entryY=0;entryDx=0;entryDy=0;endFill=0;startArrow=diamondThin;startFill=1;" edge="1" parent="WIyWlLk6GJQsqaUBKTNV-1" source="XHm6aKo8EF9p3FRcwdcO-3" target="XHm6aKo8EF9p3FRcwdcO-50">
          <mxGeometry width="50" height="50" relative="1" as="geometry">
            <mxPoint x="570" y="260" as="sourcePoint" />
            <mxPoint x="990" y="390" as="targetPoint" />
          </mxGeometry>
        </mxCell>
        <mxCell id="XHm6aKo8EF9p3FRcwdcO-83" value="" style="endArrow=none;html=1;rounded=0;entryX=0.5;entryY=0;entryDx=0;entryDy=0;endFill=0;startArrow=diamondThin;startFill=1;" edge="1" parent="WIyWlLk6GJQsqaUBKTNV-1" source="XHm6aKo8EF9p3FRcwdcO-3" target="XHm6aKo8EF9p3FRcwdcO-58">
          <mxGeometry width="50" height="50" relative="1" as="geometry">
            <mxPoint x="490" y="300" as="sourcePoint" />
            <mxPoint x="1370" y="560" as="targetPoint" />
          </mxGeometry>
        </mxCell>
        <mxCell id="XHm6aKo8EF9p3FRcwdcO-84" value="" style="endArrow=none;html=1;rounded=0;entryX=0.5;entryY=0;entryDx=0;entryDy=0;endFill=0;startArrow=diamondThin;startFill=1;" edge="1" parent="WIyWlLk6GJQsqaUBKTNV-1" source="XHm6aKo8EF9p3FRcwdcO-3" target="XHm6aKo8EF9p3FRcwdcO-62">
          <mxGeometry width="50" height="50" relative="1" as="geometry">
            <mxPoint x="490" y="300" as="sourcePoint" />
            <mxPoint x="860" y="330" as="targetPoint" />
          </mxGeometry>
        </mxCell>
        <mxCell id="XHm6aKo8EF9p3FRcwdcO-85" value="" style="endArrow=none;html=1;rounded=0;entryX=0.5;entryY=0;entryDx=0;entryDy=0;endFill=0;startArrow=diamondThin;startFill=1;" edge="1" parent="WIyWlLk6GJQsqaUBKTNV-1" source="XHm6aKo8EF9p3FRcwdcO-3" target="XHm6aKo8EF9p3FRcwdcO-66">
          <mxGeometry width="50" height="50" relative="1" as="geometry">
            <mxPoint x="490" y="300" as="sourcePoint" />
            <mxPoint x="1990" y="460" as="targetPoint" />
          </mxGeometry>
        </mxCell>
        <mxCell id="XHm6aKo8EF9p3FRcwdcO-86" value="" style="endArrow=none;html=1;rounded=0;entryX=0.5;entryY=0;entryDx=0;entryDy=0;endFill=0;startArrow=diamondThin;startFill=1;" edge="1" parent="WIyWlLk6GJQsqaUBKTNV-1" source="XHm6aKo8EF9p3FRcwdcO-3" target="XHm6aKo8EF9p3FRcwdcO-70">
          <mxGeometry width="50" height="50" relative="1" as="geometry">
            <mxPoint x="490" y="300" as="sourcePoint" />
            <mxPoint x="1990" y="460" as="targetPoint" />
          </mxGeometry>
        </mxCell>
        <mxCell id="XHm6aKo8EF9p3FRcwdcO-87" value="" style="endArrow=diamondThin;html=1;rounded=0;exitX=0.5;exitY=0;exitDx=0;exitDy=0;endFill=1;" edge="1" parent="WIyWlLk6GJQsqaUBKTNV-1" source="XHm6aKo8EF9p3FRcwdcO-29" target="XHm6aKo8EF9p3FRcwdcO-3">
          <mxGeometry width="50" height="50" relative="1" as="geometry">
            <mxPoint x="40" y="470" as="sourcePoint" />
            <mxPoint x="490" y="300" as="targetPoint" />
          </mxGeometry>
        </mxCell>
        <mxCell id="XHm6aKo8EF9p3FRcwdcO-88" value="" style="endArrow=diamondThin;html=1;rounded=0;exitX=0.5;exitY=0;exitDx=0;exitDy=0;endFill=1;" edge="1" parent="WIyWlLk6GJQsqaUBKTNV-1" source="XHm6aKo8EF9p3FRcwdcO-24" target="XHm6aKo8EF9p3FRcwdcO-3">
          <mxGeometry width="50" height="50" relative="1" as="geometry">
            <mxPoint x="-200" y="420" as="sourcePoint" />
            <mxPoint x="300" y="260" as="targetPoint" />
          </mxGeometry>
        </mxCell>
        <mxCell id="XHm6aKo8EF9p3FRcwdcO-89" value="" style="endArrow=diamondThin;html=1;rounded=0;exitX=0.5;exitY=0;exitDx=0;exitDy=0;endFill=1;" edge="1" parent="WIyWlLk6GJQsqaUBKTNV-1" source="XHm6aKo8EF9p3FRcwdcO-20" target="XHm6aKo8EF9p3FRcwdcO-3">
          <mxGeometry width="50" height="50" relative="1" as="geometry">
            <mxPoint x="-390" y="410" as="sourcePoint" />
            <mxPoint x="-340" y="360" as="targetPoint" />
          </mxGeometry>
        </mxCell>
        <mxCell id="XHm6aKo8EF9p3FRcwdcO-90" value="" style="endArrow=diamondThin;html=1;rounded=0;exitX=0.475;exitY=0.008;exitDx=0;exitDy=0;exitPerimeter=0;endFill=1;" edge="1" parent="WIyWlLk6GJQsqaUBKTNV-1" source="XHm6aKo8EF9p3FRcwdcO-16" target="XHm6aKo8EF9p3FRcwdcO-3">
          <mxGeometry width="50" height="50" relative="1" as="geometry">
            <mxPoint x="-660" y="390" as="sourcePoint" />
            <mxPoint x="-610" y="340" as="targetPoint" />
          </mxGeometry>
        </mxCell>
        <mxCell id="XHm6aKo8EF9p3FRcwdcO-91" value="" style="endArrow=diamondThin;html=1;rounded=0;exitX=0.5;exitY=0;exitDx=0;exitDy=0;endFill=1;" edge="1" parent="WIyWlLk6GJQsqaUBKTNV-1" source="XHm6aKo8EF9p3FRcwdcO-12" target="XHm6aKo8EF9p3FRcwdcO-3">
          <mxGeometry width="50" height="50" relative="1" as="geometry">
            <mxPoint x="-870" y="390" as="sourcePoint" />
            <mxPoint x="-820" y="340" as="targetPoint" />
          </mxGeometry>
        </mxCell>
        <mxCell id="XHm6aKo8EF9p3FRcwdcO-92" value="" style="endArrow=diamondThin;html=1;rounded=0;exitX=0.5;exitY=0;exitDx=0;exitDy=0;endFill=1;" edge="1" parent="WIyWlLk6GJQsqaUBKTNV-1" source="XHm6aKo8EF9p3FRcwdcO-8" target="XHm6aKo8EF9p3FRcwdcO-3">
          <mxGeometry width="50" height="50" relative="1" as="geometry">
            <mxPoint x="-1120" y="400" as="sourcePoint" />
            <mxPoint x="-1070" y="350" as="targetPoint" />
          </mxGeometry>
        </mxCell>
        <mxCell id="XHm6aKo8EF9p3FRcwdcO-101" value="Main" style="swimlane;fontStyle=1;align=center;verticalAlign=top;childLayout=stackLayout;horizontal=1;startSize=26;horizontalStack=0;resizeParent=1;resizeParentMax=0;resizeLast=0;collapsible=1;marginBottom=0;whiteSpace=wrap;html=1;" vertex="1" parent="WIyWlLk6GJQsqaUBKTNV-1">
          <mxGeometry x="580" y="-340" width="160" height="60" as="geometry" />
        </mxCell>
        <mxCell id="XHm6aKo8EF9p3FRcwdcO-102" value="~ baseName: String" style="text;strokeColor=none;fillColor=none;align=left;verticalAlign=top;spacingLeft=4;spacingRight=4;overflow=hidden;rotatable=0;points=[[0,0.5],[1,0.5]];portConstraint=eastwest;whiteSpace=wrap;html=1;" vertex="1" parent="XHm6aKo8EF9p3FRcwdcO-101">
          <mxGeometry y="26" width="160" height="26" as="geometry" />
        </mxCell>
        <mxCell id="XHm6aKo8EF9p3FRcwdcO-103" value="" style="line;strokeWidth=1;fillColor=none;align=left;verticalAlign=middle;spacingTop=-1;spacingLeft=3;spacingRight=3;rotatable=0;labelPosition=right;points=[];portConstraint=eastwest;strokeColor=inherit;" vertex="1" parent="XHm6aKo8EF9p3FRcwdcO-101">
          <mxGeometry y="52" width="160" height="8" as="geometry" />
        </mxCell>
        <mxCell id="XHm6aKo8EF9p3FRcwdcO-106" value="" style="endArrow=diamondThin;html=1;rounded=0;entryX=0.5;entryY=1;entryDx=0;entryDy=0;exitX=0.5;exitY=0;exitDx=0;exitDy=0;endFill=1;" edge="1" parent="WIyWlLk6GJQsqaUBKTNV-1" source="XHm6aKo8EF9p3FRcwdcO-0" target="XHm6aKo8EF9p3FRcwdcO-101">
          <mxGeometry width="50" height="50" relative="1" as="geometry">
            <mxPoint x="610" y="10" as="sourcePoint" />
            <mxPoint x="660" y="-40" as="targetPoint" />
          </mxGeometry>
        </mxCell>
        <mxCell id="XHm6aKo8EF9p3FRcwdcO-107" value="Accordian" style="swimlane;fontStyle=1;align=center;verticalAlign=top;childLayout=stackLayout;horizontal=1;startSize=26;horizontalStack=0;resizeParent=1;resizeParentMax=0;resizeLast=0;collapsible=1;marginBottom=0;whiteSpace=wrap;html=1;" vertex="1" parent="WIyWlLk6GJQsqaUBKTNV-1">
          <mxGeometry x="2400" y="898.5" width="200" height="100" as="geometry" />
        </mxCell>
        <mxCell id="XHm6aKo8EF9p3FRcwdcO-108" value="~isOpen: boolean" style="text;strokeColor=none;fillColor=none;align=left;verticalAlign=top;spacingLeft=4;spacingRight=4;overflow=hidden;rotatable=0;points=[[0,0.5],[1,0.5]];portConstraint=eastwest;whiteSpace=wrap;html=1;" vertex="1" parent="XHm6aKo8EF9p3FRcwdcO-107">
          <mxGeometry y="26" width="200" height="26" as="geometry" />
        </mxCell>
        <mxCell id="XHm6aKo8EF9p3FRcwdcO-109" value="" style="line;strokeWidth=1;fillColor=none;align=left;verticalAlign=middle;spacingTop=-1;spacingLeft=3;spacingRight=3;rotatable=0;labelPosition=right;points=[];portConstraint=eastwest;strokeColor=inherit;" vertex="1" parent="XHm6aKo8EF9p3FRcwdcO-107">
          <mxGeometry y="52" width="200" height="8" as="geometry" />
        </mxCell>
        <mxCell id="XHm6aKo8EF9p3FRcwdcO-110" value="~setIsOpen(isOpen:boolean): void&lt;div&gt;~toggleAccordian():void&lt;/div&gt;" style="text;strokeColor=none;fillColor=none;align=left;verticalAlign=top;spacingLeft=4;spacingRight=4;overflow=hidden;rotatable=0;points=[[0,0.5],[1,0.5]];portConstraint=eastwest;whiteSpace=wrap;html=1;" vertex="1" parent="XHm6aKo8EF9p3FRcwdcO-107">
          <mxGeometry y="60" width="200" height="40" as="geometry" />
        </mxCell>
        <mxCell id="XHm6aKo8EF9p3FRcwdcO-111" value="CheckoutSummary" style="swimlane;fontStyle=1;align=center;verticalAlign=top;childLayout=stackLayout;horizontal=1;startSize=26;horizontalStack=0;resizeParent=1;resizeParentMax=0;resizeLast=0;collapsible=1;marginBottom=0;whiteSpace=wrap;html=1;" vertex="1" parent="WIyWlLk6GJQsqaUBKTNV-1">
          <mxGeometry x="-80" y="1220" width="290" height="280" as="geometry" />
        </mxCell>
        <mxCell id="XHm6aKo8EF9p3FRcwdcO-112" value="~ token: String&lt;div&gt;~ cart: Cart&lt;/div&gt;&lt;div&gt;~ userData: Object&lt;br&gt;~ hasCredits: boolean&lt;/div&gt;&lt;div&gt;~&amp;nbsp; isChecked: boolean&lt;/div&gt;&lt;div&gt;~ cartTotal: int&lt;/div&gt;&lt;div&gt;~ creditTotal: int&lt;br&gt;~ creditLimit: int&lt;/div&gt;&lt;div&gt;~ navitage: NavigateFunction&lt;/div&gt;" style="text;strokeColor=none;fillColor=none;align=left;verticalAlign=top;spacingLeft=4;spacingRight=4;overflow=hidden;rotatable=0;points=[[0,0.5],[1,0.5]];portConstraint=eastwest;whiteSpace=wrap;html=1;" vertex="1" parent="XHm6aKo8EF9p3FRcwdcO-111">
          <mxGeometry y="26" width="290" height="134" as="geometry" />
        </mxCell>
        <mxCell id="XHm6aKo8EF9p3FRcwdcO-113" value="" style="line;strokeWidth=1;fillColor=none;align=left;verticalAlign=middle;spacingTop=-1;spacingLeft=3;spacingRight=3;rotatable=0;labelPosition=right;points=[];portConstraint=eastwest;strokeColor=inherit;" vertex="1" parent="XHm6aKo8EF9p3FRcwdcO-111">
          <mxGeometry y="160" width="290" height="8" as="geometry" />
        </mxCell>
        <mxCell id="XHm6aKo8EF9p3FRcwdcO-114" value="~ setCart(cart: Cart): void&lt;div&gt;~ setUserData(data: Object): void&lt;/div&gt;&lt;div&gt;~ setHasCredits(status: Boolean): void&lt;/div&gt;&lt;div&gt;~ setIsChecked(satus: Boolean): void&lt;/div&gt;&lt;div&gt;~ handleCheckboxChange(): void&lt;/div&gt;&lt;div&gt;+ handlePaymentSubmit(formData: FormData): void&lt;/div&gt;&lt;div&gt;~ useEffect(): void&lt;/div&gt;" style="text;strokeColor=none;fillColor=none;align=left;verticalAlign=top;spacingLeft=4;spacingRight=4;overflow=hidden;rotatable=0;points=[[0,0.5],[1,0.5]];portConstraint=eastwest;whiteSpace=wrap;html=1;" vertex="1" parent="XHm6aKo8EF9p3FRcwdcO-111">
          <mxGeometry y="168" width="290" height="112" as="geometry" />
        </mxCell>
        <mxCell id="XHm6aKo8EF9p3FRcwdcO-115" value="FailDisplay" style="swimlane;fontStyle=1;align=center;verticalAlign=top;childLayout=stackLayout;horizontal=1;startSize=26;horizontalStack=0;resizeParent=1;resizeParentMax=0;resizeLast=0;collapsible=1;marginBottom=0;whiteSpace=wrap;html=1;" vertex="1" parent="WIyWlLk6GJQsqaUBKTNV-1">
          <mxGeometry x="630" y="898.5" width="160" height="34" as="geometry" />
        </mxCell>
        <mxCell id="XHm6aKo8EF9p3FRcwdcO-117" value="" style="line;strokeWidth=1;fillColor=none;align=left;verticalAlign=middle;spacingTop=-1;spacingLeft=3;spacingRight=3;rotatable=0;labelPosition=right;points=[];portConstraint=eastwest;strokeColor=inherit;" vertex="1" parent="XHm6aKo8EF9p3FRcwdcO-115">
          <mxGeometry y="26" width="160" height="8" as="geometry" />
        </mxCell>
        <mxCell id="XHm6aKo8EF9p3FRcwdcO-123" value="LoginForm" style="swimlane;fontStyle=1;align=center;verticalAlign=top;childLayout=stackLayout;horizontal=1;startSize=26;horizontalStack=0;resizeParent=1;resizeParentMax=0;resizeLast=0;collapsible=1;marginBottom=0;whiteSpace=wrap;html=1;" vertex="1" parent="WIyWlLk6GJQsqaUBKTNV-1">
          <mxGeometry x="980" y="900" width="220" height="200" as="geometry" />
        </mxCell>
        <mxCell id="XHm6aKo8EF9p3FRcwdcO-124" value="~ formData: FormData&lt;div&gt;~ icon: ReactFeatherEye&lt;/div&gt;&lt;div&gt;~ passwordType: String&lt;/div&gt;" style="text;strokeColor=none;fillColor=none;align=left;verticalAlign=top;spacingLeft=4;spacingRight=4;overflow=hidden;rotatable=0;points=[[0,0.5],[1,0.5]];portConstraint=eastwest;whiteSpace=wrap;html=1;" vertex="1" parent="XHm6aKo8EF9p3FRcwdcO-123">
          <mxGeometry y="26" width="220" height="54" as="geometry" />
        </mxCell>
        <mxCell id="XHm6aKo8EF9p3FRcwdcO-125" value="" style="line;strokeWidth=1;fillColor=none;align=left;verticalAlign=middle;spacingTop=-1;spacingLeft=3;spacingRight=3;rotatable=0;labelPosition=right;points=[];portConstraint=eastwest;strokeColor=inherit;" vertex="1" parent="XHm6aKo8EF9p3FRcwdcO-123">
          <mxGeometry y="80" width="220" height="8" as="geometry" />
        </mxCell>
        <mxCell id="XHm6aKo8EF9p3FRcwdcO-126" value="~ setToken(token: String): void&lt;div&gt;~ setIsLoggedIn(status: boolean): void&lt;/div&gt;&lt;div&gt;~ setCart(cart: Cart): void&lt;/div&gt;&lt;div&gt;~ setFormData(data: FormData): void&lt;/div&gt;&lt;div&gt;~ handleChange(): void&lt;/div&gt;&lt;div&gt;~ handleSubmit(): void&lt;/div&gt;&lt;div&gt;~ handleToggle(): void&lt;/div&gt;" style="text;strokeColor=none;fillColor=none;align=left;verticalAlign=top;spacingLeft=4;spacingRight=4;overflow=hidden;rotatable=0;points=[[0,0.5],[1,0.5]];portConstraint=eastwest;whiteSpace=wrap;html=1;" vertex="1" parent="XHm6aKo8EF9p3FRcwdcO-123">
          <mxGeometry y="88" width="220" height="112" as="geometry" />
        </mxCell>
        <mxCell id="XHm6aKo8EF9p3FRcwdcO-127" value="Movie" style="swimlane;fontStyle=1;align=center;verticalAlign=top;childLayout=stackLayout;horizontal=1;startSize=26;horizontalStack=0;resizeParent=1;resizeParentMax=0;resizeLast=0;collapsible=1;marginBottom=0;whiteSpace=wrap;html=1;" vertex="1" parent="WIyWlLk6GJQsqaUBKTNV-1">
          <mxGeometry x="-520" y="1220" width="230" height="78" as="geometry" />
        </mxCell>
        <mxCell id="XHm6aKo8EF9p3FRcwdcO-128" value="~ MAX_DESCRIPTION_LENGTH: int&lt;div&gt;~ MAX_TITLE_LENGTH: int&lt;/div&gt;" style="text;strokeColor=none;fillColor=none;align=left;verticalAlign=top;spacingLeft=4;spacingRight=4;overflow=hidden;rotatable=0;points=[[0,0.5],[1,0.5]];portConstraint=eastwest;whiteSpace=wrap;html=1;" vertex="1" parent="XHm6aKo8EF9p3FRcwdcO-127">
          <mxGeometry y="26" width="230" height="44" as="geometry" />
        </mxCell>
        <mxCell id="XHm6aKo8EF9p3FRcwdcO-129" value="" style="line;strokeWidth=1;fillColor=none;align=left;verticalAlign=middle;spacingTop=-1;spacingLeft=3;spacingRight=3;rotatable=0;labelPosition=right;points=[];portConstraint=eastwest;strokeColor=inherit;" vertex="1" parent="XHm6aKo8EF9p3FRcwdcO-127">
          <mxGeometry y="70" width="230" height="8" as="geometry" />
        </mxCell>
        <mxCell id="XHm6aKo8EF9p3FRcwdcO-131" value="MovieList" style="swimlane;fontStyle=1;align=center;verticalAlign=top;childLayout=stackLayout;horizontal=1;startSize=26;horizontalStack=0;resizeParent=1;resizeParentMax=0;resizeLast=0;collapsible=1;marginBottom=0;whiteSpace=wrap;html=1;" vertex="1" parent="WIyWlLk6GJQsqaUBKTNV-1">
          <mxGeometry x="-485" y="900" width="160" height="34" as="geometry" />
        </mxCell>
        <mxCell id="XHm6aKo8EF9p3FRcwdcO-133" value="" style="line;strokeWidth=1;fillColor=none;align=left;verticalAlign=middle;spacingTop=-1;spacingLeft=3;spacingRight=3;rotatable=0;labelPosition=right;points=[];portConstraint=eastwest;strokeColor=inherit;" vertex="1" parent="XHm6aKo8EF9p3FRcwdcO-131">
          <mxGeometry y="26" width="160" height="8" as="geometry" />
        </mxCell>
        <mxCell id="XHm6aKo8EF9p3FRcwdcO-135" value="MyAccountForm" style="swimlane;fontStyle=1;align=center;verticalAlign=top;childLayout=stackLayout;horizontal=1;startSize=26;horizontalStack=0;resizeParent=1;resizeParentMax=0;resizeLast=0;collapsible=1;marginBottom=0;whiteSpace=wrap;html=1;" vertex="1" parent="WIyWlLk6GJQsqaUBKTNV-1">
          <mxGeometry x="-290" y="900" width="220" height="170" as="geometry" />
        </mxCell>
        <mxCell id="XHm6aKo8EF9p3FRcwdcO-136" value="~ isLoggedIn: boolean&lt;div&gt;~ userData: UserData&lt;/div&gt;&lt;div&gt;~ token: String&lt;/div&gt;" style="text;strokeColor=none;fillColor=none;align=left;verticalAlign=top;spacingLeft=4;spacingRight=4;overflow=hidden;rotatable=0;points=[[0,0.5],[1,0.5]];portConstraint=eastwest;whiteSpace=wrap;html=1;" vertex="1" parent="XHm6aKo8EF9p3FRcwdcO-135">
          <mxGeometry y="26" width="220" height="64" as="geometry" />
        </mxCell>
        <mxCell id="XHm6aKo8EF9p3FRcwdcO-137" value="" style="line;strokeWidth=1;fillColor=none;align=left;verticalAlign=middle;spacingTop=-1;spacingLeft=3;spacingRight=3;rotatable=0;labelPosition=right;points=[];portConstraint=eastwest;strokeColor=inherit;" vertex="1" parent="XHm6aKo8EF9p3FRcwdcO-135">
          <mxGeometry y="90" width="220" height="8" as="geometry" />
        </mxCell>
        <mxCell id="XHm6aKo8EF9p3FRcwdcO-138" value="~ setUSerData(data: UserData): void&lt;div&gt;~ setIsLoggedIn(status: boolean): void&lt;/div&gt;&lt;div&gt;~ handleDelete(): void&lt;/div&gt;&lt;div&gt;~ useEffect(): void&lt;/div&gt;" style="text;strokeColor=none;fillColor=none;align=left;verticalAlign=top;spacingLeft=4;spacingRight=4;overflow=hidden;rotatable=0;points=[[0,0.5],[1,0.5]];portConstraint=eastwest;whiteSpace=wrap;html=1;" vertex="1" parent="XHm6aKo8EF9p3FRcwdcO-135">
          <mxGeometry y="98" width="220" height="72" as="geometry" />
        </mxCell>
        <mxCell id="XHm6aKo8EF9p3FRcwdcO-139" value="Nav" style="swimlane;fontStyle=1;align=center;verticalAlign=top;childLayout=stackLayout;horizontal=1;startSize=26;horizontalStack=0;resizeParent=1;resizeParentMax=0;resizeLast=0;collapsible=1;marginBottom=0;whiteSpace=wrap;html=1;" vertex="1" parent="WIyWlLk6GJQsqaUBKTNV-1">
          <mxGeometry x="2654" y="898.5" width="230" height="200" as="geometry" />
        </mxCell>
        <mxCell id="XHm6aKo8EF9p3FRcwdcO-140" value="~ isLoggedIn: boolean&lt;div&gt;~ isOpen: boolean&lt;/div&gt;&lt;div&gt;~ cart: Cart&lt;/div&gt;&lt;div&gt;~ isOpenPopup: boolean&lt;/div&gt;" style="text;strokeColor=none;fillColor=none;align=left;verticalAlign=top;spacingLeft=4;spacingRight=4;overflow=hidden;rotatable=0;points=[[0,0.5],[1,0.5]];portConstraint=eastwest;whiteSpace=wrap;html=1;" vertex="1" parent="XHm6aKo8EF9p3FRcwdcO-139">
          <mxGeometry y="26" width="230" height="64" as="geometry" />
        </mxCell>
        <mxCell id="XHm6aKo8EF9p3FRcwdcO-141" value="" style="line;strokeWidth=1;fillColor=none;align=left;verticalAlign=middle;spacingTop=-1;spacingLeft=3;spacingRight=3;rotatable=0;labelPosition=right;points=[];portConstraint=eastwest;strokeColor=inherit;" vertex="1" parent="XHm6aKo8EF9p3FRcwdcO-139">
          <mxGeometry y="90" width="230" height="8" as="geometry" />
        </mxCell>
        <mxCell id="XHm6aKo8EF9p3FRcwdcO-142" value="~ setIsLoggedIn(status: boolean): void&lt;div&gt;~ setIsOpen(status: boolean): void&lt;/div&gt;&lt;div&gt;~ setCart(cart: Cart): void&lt;/div&gt;&lt;div&gt;~ toggleMenu(): void&lt;/div&gt;&lt;div&gt;~ handleLogout(): void&lt;/div&gt;&lt;div&gt;~ setIsOpenPopup(status: boolean): void&lt;/div&gt;" style="text;strokeColor=none;fillColor=none;align=left;verticalAlign=top;spacingLeft=4;spacingRight=4;overflow=hidden;rotatable=0;points=[[0,0.5],[1,0.5]];portConstraint=eastwest;whiteSpace=wrap;html=1;" vertex="1" parent="XHm6aKo8EF9p3FRcwdcO-139">
          <mxGeometry y="98" width="230" height="102" as="geometry" />
        </mxCell>
        <mxCell id="XHm6aKo8EF9p3FRcwdcO-144" value="PremiumSummary" style="swimlane;fontStyle=1;align=center;verticalAlign=top;childLayout=stackLayout;horizontal=1;startSize=26;horizontalStack=0;resizeParent=1;resizeParentMax=0;resizeLast=0;collapsible=1;marginBottom=0;whiteSpace=wrap;html=1;" vertex="1" parent="WIyWlLk6GJQsqaUBKTNV-1">
          <mxGeometry x="290" y="1220" width="280" height="120" as="geometry" />
        </mxCell>
        <mxCell id="XHm6aKo8EF9p3FRcwdcO-145" value="~ token: String&lt;div&gt;~ navitage: NavigateFunction&lt;br&gt;&lt;/div&gt;" style="text;strokeColor=none;fillColor=none;align=left;verticalAlign=top;spacingLeft=4;spacingRight=4;overflow=hidden;rotatable=0;points=[[0,0.5],[1,0.5]];portConstraint=eastwest;whiteSpace=wrap;html=1;" vertex="1" parent="XHm6aKo8EF9p3FRcwdcO-144">
          <mxGeometry y="26" width="280" height="44" as="geometry" />
        </mxCell>
        <mxCell id="XHm6aKo8EF9p3FRcwdcO-146" value="" style="line;strokeWidth=1;fillColor=none;align=left;verticalAlign=middle;spacingTop=-1;spacingLeft=3;spacingRight=3;rotatable=0;labelPosition=right;points=[];portConstraint=eastwest;strokeColor=inherit;" vertex="1" parent="XHm6aKo8EF9p3FRcwdcO-144">
          <mxGeometry y="70" width="280" height="8" as="geometry" />
        </mxCell>
        <mxCell id="XHm6aKo8EF9p3FRcwdcO-147" value="+ handlePaymentSubmit(forData: FormData):void&lt;div&gt;~ setIsPremium(status: Boolean): void&lt;/div&gt;" style="text;strokeColor=none;fillColor=none;align=left;verticalAlign=top;spacingLeft=4;spacingRight=4;overflow=hidden;rotatable=0;points=[[0,0.5],[1,0.5]];portConstraint=eastwest;whiteSpace=wrap;html=1;" vertex="1" parent="XHm6aKo8EF9p3FRcwdcO-144">
          <mxGeometry y="78" width="280" height="42" as="geometry" />
        </mxCell>
        <mxCell id="XHm6aKo8EF9p3FRcwdcO-148" value="ProtectedRoute" style="swimlane;fontStyle=1;align=center;verticalAlign=top;childLayout=stackLayout;horizontal=1;startSize=26;horizontalStack=0;resizeParent=1;resizeParentMax=0;resizeLast=0;collapsible=1;marginBottom=0;whiteSpace=wrap;html=1;" vertex="1" parent="WIyWlLk6GJQsqaUBKTNV-1">
          <mxGeometry x="2930" y="900" width="160" height="68" as="geometry" />
        </mxCell>
        <mxCell id="XHm6aKo8EF9p3FRcwdcO-149" value="~ location: Location&lt;div&gt;~ isLoggedIn; boolean&lt;/div&gt;" style="text;strokeColor=none;fillColor=none;align=left;verticalAlign=top;spacingLeft=4;spacingRight=4;overflow=hidden;rotatable=0;points=[[0,0.5],[1,0.5]];portConstraint=eastwest;whiteSpace=wrap;html=1;" vertex="1" parent="XHm6aKo8EF9p3FRcwdcO-148">
          <mxGeometry y="26" width="160" height="34" as="geometry" />
        </mxCell>
        <mxCell id="XHm6aKo8EF9p3FRcwdcO-150" value="" style="line;strokeWidth=1;fillColor=none;align=left;verticalAlign=middle;spacingTop=-1;spacingLeft=3;spacingRight=3;rotatable=0;labelPosition=right;points=[];portConstraint=eastwest;strokeColor=inherit;" vertex="1" parent="XHm6aKo8EF9p3FRcwdcO-148">
          <mxGeometry y="60" width="160" height="8" as="geometry" />
        </mxCell>
        <mxCell id="XHm6aKo8EF9p3FRcwdcO-152" value="RegisterForm" style="swimlane;fontStyle=1;align=center;verticalAlign=top;childLayout=stackLayout;horizontal=1;startSize=26;horizontalStack=0;resizeParent=1;resizeParentMax=0;resizeLast=0;collapsible=1;marginBottom=0;whiteSpace=wrap;html=1;" vertex="1" parent="WIyWlLk6GJQsqaUBKTNV-1">
          <mxGeometry x="1241" y="900" width="220" height="190" as="geometry" />
        </mxCell>
        <mxCell id="XHm6aKo8EF9p3FRcwdcO-153" value="~ formData: FormData&lt;div&gt;~ icon: ReactFeatherEye&lt;/div&gt;&lt;div&gt;~ passwordType: String&lt;/div&gt;" style="text;strokeColor=none;fillColor=none;align=left;verticalAlign=top;spacingLeft=4;spacingRight=4;overflow=hidden;rotatable=0;points=[[0,0.5],[1,0.5]];portConstraint=eastwest;whiteSpace=wrap;html=1;" vertex="1" parent="XHm6aKo8EF9p3FRcwdcO-152">
          <mxGeometry y="26" width="220" height="54" as="geometry" />
        </mxCell>
        <mxCell id="XHm6aKo8EF9p3FRcwdcO-154" value="" style="line;strokeWidth=1;fillColor=none;align=left;verticalAlign=middle;spacingTop=-1;spacingLeft=3;spacingRight=3;rotatable=0;labelPosition=right;points=[];portConstraint=eastwest;strokeColor=inherit;" vertex="1" parent="XHm6aKo8EF9p3FRcwdcO-152">
          <mxGeometry y="80" width="220" height="8" as="geometry" />
        </mxCell>
        <mxCell id="XHm6aKo8EF9p3FRcwdcO-155" value="~ setToken(token: String): void&lt;div&gt;~ setIsLoggedIn(status: boolean): void&lt;/div&gt;&lt;div&gt;&lt;span style=&quot;background-color: initial;&quot;&gt;~ setFormData(data: FormData): void&lt;/span&gt;&lt;br&gt;&lt;/div&gt;&lt;div&gt;~ handleChange(): void&lt;/div&gt;&lt;div&gt;~ handleSubmit(): void&lt;/div&gt;&lt;div&gt;~ handleToggle(): void&lt;/div&gt;" style="text;strokeColor=none;fillColor=none;align=left;verticalAlign=top;spacingLeft=4;spacingRight=4;overflow=hidden;rotatable=0;points=[[0,0.5],[1,0.5]];portConstraint=eastwest;whiteSpace=wrap;html=1;" vertex="1" parent="XHm6aKo8EF9p3FRcwdcO-152">
          <mxGeometry y="88" width="220" height="102" as="geometry" />
        </mxCell>
        <mxCell id="XHm6aKo8EF9p3FRcwdcO-156" value="ShowTimes" style="swimlane;fontStyle=1;align=center;verticalAlign=top;childLayout=stackLayout;horizontal=1;startSize=26;horizontalStack=0;resizeParent=1;resizeParentMax=0;resizeLast=0;collapsible=1;marginBottom=0;whiteSpace=wrap;html=1;" vertex="1" parent="WIyWlLk6GJQsqaUBKTNV-1">
          <mxGeometry x="2006" y="898.5" width="350" height="130" as="geometry" />
        </mxCell>
        <mxCell id="XHm6aKo8EF9p3FRcwdcO-157" value="~ groupedShowtimes: showTimes&lt;div&gt;~ navigate: NavigateFunction&lt;/div&gt;" style="text;strokeColor=none;fillColor=none;align=left;verticalAlign=top;spacingLeft=4;spacingRight=4;overflow=hidden;rotatable=0;points=[[0,0.5],[1,0.5]];portConstraint=eastwest;whiteSpace=wrap;html=1;" vertex="1" parent="XHm6aKo8EF9p3FRcwdcO-156">
          <mxGeometry y="26" width="350" height="54" as="geometry" />
        </mxCell>
        <mxCell id="XHm6aKo8EF9p3FRcwdcO-158" value="" style="line;strokeWidth=1;fillColor=none;align=left;verticalAlign=middle;spacingTop=-1;spacingLeft=3;spacingRight=3;rotatable=0;labelPosition=right;points=[];portConstraint=eastwest;strokeColor=inherit;" vertex="1" parent="XHm6aKo8EF9p3FRcwdcO-156">
          <mxGeometry y="80" width="350" height="8" as="geometry" />
        </mxCell>
        <mxCell id="XHm6aKo8EF9p3FRcwdcO-159" value="- formatTime(time: dateTime): void&lt;div&gt;- goupShowTimesByDay(showtimes: ShowTimes): ShowTimes&lt;/div&gt;" style="text;strokeColor=none;fillColor=none;align=left;verticalAlign=top;spacingLeft=4;spacingRight=4;overflow=hidden;rotatable=0;points=[[0,0.5],[1,0.5]];portConstraint=eastwest;whiteSpace=wrap;html=1;" vertex="1" parent="XHm6aKo8EF9p3FRcwdcO-156">
          <mxGeometry y="88" width="350" height="42" as="geometry" />
        </mxCell>
        <mxCell id="XHm6aKo8EF9p3FRcwdcO-160" value="SuccessDisplay" style="swimlane;fontStyle=1;align=center;verticalAlign=top;childLayout=stackLayout;horizontal=1;startSize=26;horizontalStack=0;resizeParent=1;resizeParentMax=0;resizeLast=0;collapsible=1;marginBottom=0;whiteSpace=wrap;html=1;" vertex="1" parent="WIyWlLk6GJQsqaUBKTNV-1">
          <mxGeometry x="440" y="898.5" width="160" height="34" as="geometry" />
        </mxCell>
        <mxCell id="XHm6aKo8EF9p3FRcwdcO-162" value="" style="line;strokeWidth=1;fillColor=none;align=left;verticalAlign=middle;spacingTop=-1;spacingLeft=3;spacingRight=3;rotatable=0;labelPosition=right;points=[];portConstraint=eastwest;strokeColor=inherit;" vertex="1" parent="XHm6aKo8EF9p3FRcwdcO-160">
          <mxGeometry y="26" width="160" height="8" as="geometry" />
        </mxCell>
        <mxCell id="XHm6aKo8EF9p3FRcwdcO-164" value="TogglePill" style="swimlane;fontStyle=1;align=center;verticalAlign=top;childLayout=stackLayout;horizontal=1;startSize=26;horizontalStack=0;resizeParent=1;resizeParentMax=0;resizeLast=0;collapsible=1;marginBottom=0;whiteSpace=wrap;html=1;" vertex="1" parent="WIyWlLk6GJQsqaUBKTNV-1">
          <mxGeometry x="1501" y="900" width="160" height="34" as="geometry" />
        </mxCell>
        <mxCell id="XHm6aKo8EF9p3FRcwdcO-166" value="" style="line;strokeWidth=1;fillColor=none;align=left;verticalAlign=middle;spacingTop=-1;spacingLeft=3;spacingRight=3;rotatable=0;labelPosition=right;points=[];portConstraint=eastwest;strokeColor=inherit;" vertex="1" parent="XHm6aKo8EF9p3FRcwdcO-164">
          <mxGeometry y="26" width="160" height="8" as="geometry" />
        </mxCell>
        <mxCell id="XHm6aKo8EF9p3FRcwdcO-119" value="CreditCardForm" style="swimlane;fontStyle=1;align=center;verticalAlign=top;childLayout=stackLayout;horizontal=1;startSize=26;horizontalStack=0;resizeParent=1;resizeParentMax=0;resizeLast=0;collapsible=1;marginBottom=0;whiteSpace=wrap;html=1;" vertex="1" parent="WIyWlLk6GJQsqaUBKTNV-1">
          <mxGeometry x="325" y="1661" width="210" height="160" as="geometry" />
        </mxCell>
        <mxCell id="XHm6aKo8EF9p3FRcwdcO-120" value="~ token: String&lt;div&gt;~ userData: FormData&lt;/div&gt;&lt;div&gt;&lt;br&gt;&lt;/div&gt;" style="text;strokeColor=none;fillColor=none;align=left;verticalAlign=top;spacingLeft=4;spacingRight=4;overflow=hidden;rotatable=0;points=[[0,0.5],[1,0.5]];portConstraint=eastwest;whiteSpace=wrap;html=1;" vertex="1" parent="XHm6aKo8EF9p3FRcwdcO-119">
          <mxGeometry y="26" width="210" height="44" as="geometry" />
        </mxCell>
        <mxCell id="XHm6aKo8EF9p3FRcwdcO-121" value="" style="line;strokeWidth=1;fillColor=none;align=left;verticalAlign=middle;spacingTop=-1;spacingLeft=3;spacingRight=3;rotatable=0;labelPosition=right;points=[];portConstraint=eastwest;strokeColor=inherit;" vertex="1" parent="XHm6aKo8EF9p3FRcwdcO-119">
          <mxGeometry y="70" width="210" height="8" as="geometry" />
        </mxCell>
        <mxCell id="XHm6aKo8EF9p3FRcwdcO-122" value="~ setUserData(data: FormData): void&lt;div&gt;~ setFormData(data: FormData): void&lt;/div&gt;&lt;div&gt;~ handleInputChange(e: Error): void&lt;/div&gt;&lt;div&gt;~ handleFormSubmit(e: Error) void&lt;/div&gt;&lt;div&gt;~ useEffect(): void&lt;/div&gt;" style="text;strokeColor=none;fillColor=none;align=left;verticalAlign=top;spacingLeft=4;spacingRight=4;overflow=hidden;rotatable=0;points=[[0,0.5],[1,0.5]];portConstraint=eastwest;whiteSpace=wrap;html=1;" vertex="1" parent="XHm6aKo8EF9p3FRcwdcO-119">
          <mxGeometry y="78" width="210" height="82" as="geometry" />
        </mxCell>
        <mxCell id="XHm6aKo8EF9p3FRcwdcO-177" value="RedirectButton" style="swimlane;fontStyle=1;align=center;verticalAlign=top;childLayout=stackLayout;horizontal=1;startSize=26;horizontalStack=0;resizeParent=1;resizeParentMax=0;resizeLast=0;collapsible=1;marginBottom=0;whiteSpace=wrap;html=1;" vertex="1" parent="WIyWlLk6GJQsqaUBKTNV-1">
          <mxGeometry x="720" y="1220" width="190" height="86" as="geometry" />
        </mxCell>
        <mxCell id="XHm6aKo8EF9p3FRcwdcO-178" value="~ navigate: NavitageFunction" style="text;strokeColor=none;fillColor=none;align=left;verticalAlign=top;spacingLeft=4;spacingRight=4;overflow=hidden;rotatable=0;points=[[0,0.5],[1,0.5]];portConstraint=eastwest;whiteSpace=wrap;html=1;" vertex="1" parent="XHm6aKo8EF9p3FRcwdcO-177">
          <mxGeometry y="26" width="190" height="26" as="geometry" />
        </mxCell>
        <mxCell id="XHm6aKo8EF9p3FRcwdcO-179" value="" style="line;strokeWidth=1;fillColor=none;align=left;verticalAlign=middle;spacingTop=-1;spacingLeft=3;spacingRight=3;rotatable=0;labelPosition=right;points=[];portConstraint=eastwest;strokeColor=inherit;" vertex="1" parent="XHm6aKo8EF9p3FRcwdcO-177">
          <mxGeometry y="52" width="190" height="8" as="geometry" />
        </mxCell>
        <mxCell id="XHm6aKo8EF9p3FRcwdcO-180" value="~ HandleRedirect():void" style="text;strokeColor=none;fillColor=none;align=left;verticalAlign=top;spacingLeft=4;spacingRight=4;overflow=hidden;rotatable=0;points=[[0,0.5],[1,0.5]];portConstraint=eastwest;whiteSpace=wrap;html=1;" vertex="1" parent="XHm6aKo8EF9p3FRcwdcO-177">
          <mxGeometry y="60" width="190" height="26" as="geometry" />
        </mxCell>
        <mxCell id="XHm6aKo8EF9p3FRcwdcO-182" value="" style="endArrow=none;html=1;rounded=0;exitX=0.503;exitY=0.991;exitDx=0;exitDy=0;exitPerimeter=0;entryX=0.5;entryY=0;entryDx=0;entryDy=0;startArrow=diamondThin;startFill=1;" edge="1" parent="WIyWlLk6GJQsqaUBKTNV-1" source="XHm6aKo8EF9p3FRcwdcO-114" target="XHm6aKo8EF9p3FRcwdcO-119">
          <mxGeometry width="50" height="50" relative="1" as="geometry">
            <mxPoint x="-880" y="1616" as="sourcePoint" />
            <mxPoint x="-830" y="1566" as="targetPoint" />
          </mxGeometry>
        </mxCell>
        <mxCell id="XHm6aKo8EF9p3FRcwdcO-184" value="" style="endArrow=diamondThin;html=1;rounded=0;entryX=0.5;entryY=1;entryDx=0;entryDy=0;exitX=0.5;exitY=0;exitDx=0;exitDy=0;endFill=1;" edge="1" parent="WIyWlLk6GJQsqaUBKTNV-1" source="XHm6aKo8EF9p3FRcwdcO-111">
          <mxGeometry width="50" height="50" relative="1" as="geometry">
            <mxPoint x="40" y="898.5" as="sourcePoint" />
            <mxPoint x="199.99999999999955" y="510" as="targetPoint" />
          </mxGeometry>
        </mxCell>
        <mxCell id="XHm6aKo8EF9p3FRcwdcO-185" value="" style="endArrow=diamondThin;html=1;rounded=0;entryX=0.5;entryY=1;entryDx=0;entryDy=0;exitX=0.5;exitY=0;exitDx=0;exitDy=0;endFill=1;" edge="1" parent="WIyWlLk6GJQsqaUBKTNV-1" source="XHm6aKo8EF9p3FRcwdcO-144">
          <mxGeometry width="50" height="50" relative="1" as="geometry">
            <mxPoint x="475" y="898.5" as="sourcePoint" />
            <mxPoint x="270" y="510" as="targetPoint" />
          </mxGeometry>
        </mxCell>
        <mxCell id="XHm6aKo8EF9p3FRcwdcO-186" value="" style="endArrow=diamondThin;html=1;rounded=0;entryX=0.5;entryY=1;entryDx=0;entryDy=0;exitX=0.5;exitY=0;exitDx=0;exitDy=0;endFill=1;" edge="1" parent="WIyWlLk6GJQsqaUBKTNV-1" source="XHm6aKo8EF9p3FRcwdcO-115" target="XHm6aKo8EF9p3FRcwdcO-42">
          <mxGeometry width="50" height="50" relative="1" as="geometry">
            <mxPoint x="800" y="910" as="sourcePoint" />
            <mxPoint x="850" y="860" as="targetPoint" />
          </mxGeometry>
        </mxCell>
        <mxCell id="XHm6aKo8EF9p3FRcwdcO-187" value="" style="endArrow=diamondThin;html=1;rounded=0;entryX=0.5;entryY=1;entryDx=0;entryDy=0;exitX=0.5;exitY=0;exitDx=0;exitDy=0;endFill=1;" edge="1" parent="WIyWlLk6GJQsqaUBKTNV-1" source="XHm6aKo8EF9p3FRcwdcO-160" target="XHm6aKo8EF9p3FRcwdcO-37">
          <mxGeometry width="50" height="50" relative="1" as="geometry">
            <mxPoint x="800" y="910" as="sourcePoint" />
            <mxPoint x="850" y="860" as="targetPoint" />
          </mxGeometry>
        </mxCell>
        <mxCell id="XHm6aKo8EF9p3FRcwdcO-188" value="" style="endArrow=diamondThin;html=1;rounded=0;entryX=0.5;entryY=1;entryDx=0;entryDy=0;exitX=0.25;exitY=0;exitDx=0;exitDy=0;endFill=1;" edge="1" parent="WIyWlLk6GJQsqaUBKTNV-1" source="XHm6aKo8EF9p3FRcwdcO-177" target="XHm6aKo8EF9p3FRcwdcO-160">
          <mxGeometry width="50" height="50" relative="1" as="geometry">
            <mxPoint x="890" y="1420" as="sourcePoint" />
            <mxPoint x="940" y="1370" as="targetPoint" />
          </mxGeometry>
        </mxCell>
        <mxCell id="XHm6aKo8EF9p3FRcwdcO-189" value="" style="endArrow=diamondThin;html=1;rounded=0;entryX=0.5;entryY=1;entryDx=0;entryDy=0;exitX=0.5;exitY=0;exitDx=0;exitDy=0;endFill=1;" edge="1" parent="WIyWlLk6GJQsqaUBKTNV-1" source="XHm6aKo8EF9p3FRcwdcO-177" target="XHm6aKo8EF9p3FRcwdcO-115">
          <mxGeometry width="50" height="50" relative="1" as="geometry">
            <mxPoint x="890" y="1420" as="sourcePoint" />
            <mxPoint x="940" y="1370" as="targetPoint" />
          </mxGeometry>
        </mxCell>
        <mxCell id="XHm6aKo8EF9p3FRcwdcO-190" value="" style="endArrow=diamondThin;html=1;rounded=0;entryX=0.5;entryY=1;entryDx=0;entryDy=0;exitX=0.5;exitY=0;exitDx=0;exitDy=0;endFill=1;" edge="1" parent="WIyWlLk6GJQsqaUBKTNV-1" source="XHm6aKo8EF9p3FRcwdcO-135" target="XHm6aKo8EF9p3FRcwdcO-24">
          <mxGeometry width="50" height="50" relative="1" as="geometry">
            <mxPoint x="-80" y="920" as="sourcePoint" />
            <mxPoint x="-30" y="870" as="targetPoint" />
          </mxGeometry>
        </mxCell>
        <mxCell id="XHm6aKo8EF9p3FRcwdcO-193" value="" style="endArrow=diamondThin;html=1;rounded=0;exitX=0.5;exitY=0;exitDx=0;exitDy=0;endFill=1;" edge="1" parent="WIyWlLk6GJQsqaUBKTNV-1" source="XHm6aKo8EF9p3FRcwdcO-123" target="XHm6aKo8EF9p3FRcwdcO-57">
          <mxGeometry width="50" height="50" relative="1" as="geometry">
            <mxPoint x="1050" y="760" as="sourcePoint" />
            <mxPoint x="1100" y="710" as="targetPoint" />
          </mxGeometry>
        </mxCell>
        <mxCell id="XHm6aKo8EF9p3FRcwdcO-194" value="" style="endArrow=diamondThin;html=1;rounded=0;exitX=0.5;exitY=0;exitDx=0;exitDy=0;endFill=1;" edge="1" parent="WIyWlLk6GJQsqaUBKTNV-1" source="XHm6aKo8EF9p3FRcwdcO-152" target="XHm6aKo8EF9p3FRcwdcO-57">
          <mxGeometry width="50" height="50" relative="1" as="geometry">
            <mxPoint x="1180" y="710" as="sourcePoint" />
            <mxPoint x="1230" y="660" as="targetPoint" />
          </mxGeometry>
        </mxCell>
        <mxCell id="XHm6aKo8EF9p3FRcwdcO-195" value="" style="endArrow=diamondThin;html=1;rounded=0;exitX=0.5;exitY=0;exitDx=0;exitDy=0;endFill=1;" edge="1" parent="WIyWlLk6GJQsqaUBKTNV-1" source="XHm6aKo8EF9p3FRcwdcO-164" target="XHm6aKo8EF9p3FRcwdcO-57">
          <mxGeometry width="50" height="50" relative="1" as="geometry">
            <mxPoint x="1180" y="710" as="sourcePoint" />
            <mxPoint x="1230" y="660" as="targetPoint" />
          </mxGeometry>
        </mxCell>
        <mxCell id="XHm6aKo8EF9p3FRcwdcO-196" value="" style="endArrow=diamondThin;html=1;rounded=0;entryX=0.5;entryY=1;entryDx=0;entryDy=0;exitX=0.5;exitY=0;exitDx=0;exitDy=0;endFill=1;" edge="1" parent="WIyWlLk6GJQsqaUBKTNV-1" source="XHm6aKo8EF9p3FRcwdcO-156" target="XHm6aKo8EF9p3FRcwdcO-66">
          <mxGeometry width="50" height="50" relative="1" as="geometry">
            <mxPoint x="2230" y="730" as="sourcePoint" />
            <mxPoint x="2280" y="680" as="targetPoint" />
          </mxGeometry>
        </mxCell>
        <mxCell id="XHm6aKo8EF9p3FRcwdcO-199" value="" style="endArrow=diamondThin;html=1;rounded=0;entryX=0.75;entryY=1;entryDx=0;entryDy=0;exitX=0.5;exitY=0;exitDx=0;exitDy=0;endFill=1;" edge="1" parent="WIyWlLk6GJQsqaUBKTNV-1" source="XHm6aKo8EF9p3FRcwdcO-107" target="XHm6aKo8EF9p3FRcwdcO-66">
          <mxGeometry width="50" height="50" relative="1" as="geometry">
            <mxPoint x="1750" y="920" as="sourcePoint" />
            <mxPoint x="1800" y="870" as="targetPoint" />
          </mxGeometry>
        </mxCell>
        <mxCell id="XHm6aKo8EF9p3FRcwdcO-200" value="" style="endArrow=diamondThin;html=1;rounded=0;endFill=1;" edge="1" parent="WIyWlLk6GJQsqaUBKTNV-1" source="XHm6aKo8EF9p3FRcwdcO-119" target="XHm6aKo8EF9p3FRcwdcO-147">
          <mxGeometry width="50" height="50" relative="1" as="geometry">
            <mxPoint x="430" y="1540" as="sourcePoint" />
            <mxPoint x="410" y="1340" as="targetPoint" />
          </mxGeometry>
        </mxCell>
        <mxCell id="XHm6aKo8EF9p3FRcwdcO-201" value="" style="endArrow=diamondThin;html=1;rounded=0;entryX=0.998;entryY=0.052;entryDx=0;entryDy=0;exitX=0.5;exitY=0;exitDx=0;exitDy=0;entryPerimeter=0;endFill=1;" edge="1" parent="WIyWlLk6GJQsqaUBKTNV-1" source="XHm6aKo8EF9p3FRcwdcO-148" target="XHm6aKo8EF9p3FRcwdcO-3">
          <mxGeometry width="50" height="50" relative="1" as="geometry">
            <mxPoint x="2700" y="690" as="sourcePoint" />
            <mxPoint x="1230" y="480" as="targetPoint" />
            <Array as="points">
              <mxPoint x="3010" y="-20" />
            </Array>
          </mxGeometry>
        </mxCell>
        <mxCell id="XHm6aKo8EF9p3FRcwdcO-202" value="" style="endArrow=diamondThin;html=1;rounded=0;entryX=1;entryY=0.5;entryDx=0;entryDy=0;exitX=0.5;exitY=0;exitDx=0;exitDy=0;endFill=1;" edge="1" parent="WIyWlLk6GJQsqaUBKTNV-1" source="XHm6aKo8EF9p3FRcwdcO-139" target="XHm6aKo8EF9p3FRcwdcO-3">
          <mxGeometry width="50" height="50" relative="1" as="geometry">
            <mxPoint x="1180" y="530" as="sourcePoint" />
            <mxPoint x="1230" y="480" as="targetPoint" />
            <Array as="points">
              <mxPoint x="2769" />
            </Array>
          </mxGeometry>
        </mxCell>
        <mxCell id="XHm6aKo8EF9p3FRcwdcO-205" value="Components" style="text;html=1;align=center;verticalAlign=middle;whiteSpace=wrap;rounded=0;" vertex="1" parent="WIyWlLk6GJQsqaUBKTNV-1">
          <mxGeometry x="-1430" y="790" width="60" height="30" as="geometry" />
        </mxCell>
        <mxCell id="XHm6aKo8EF9p3FRcwdcO-208" value="Pages" style="text;html=1;align=center;verticalAlign=middle;whiteSpace=wrap;rounded=0;" vertex="1" parent="WIyWlLk6GJQsqaUBKTNV-1">
          <mxGeometry x="-1450" y="250" width="60" height="30" as="geometry" />
        </mxCell>
        <mxCell id="XHm6aKo8EF9p3FRcwdcO-210" value="" style="endArrow=diamondThin;html=1;rounded=0;entryX=0.5;entryY=1;entryDx=0;entryDy=0;exitX=0.5;exitY=0;exitDx=0;exitDy=0;endFill=1;" edge="1" parent="WIyWlLk6GJQsqaUBKTNV-1" source="XHm6aKo8EF9p3FRcwdcO-127" target="XHm6aKo8EF9p3FRcwdcO-131">
          <mxGeometry width="50" height="50" relative="1" as="geometry">
            <mxPoint x="-160" y="1170" as="sourcePoint" />
            <mxPoint x="-110" y="1120" as="targetPoint" />
          </mxGeometry>
        </mxCell>
        <mxCell id="XHm6aKo8EF9p3FRcwdcO-211" value="" style="endArrow=diamondThin;html=1;rounded=0;endFill=1;" edge="1" parent="WIyWlLk6GJQsqaUBKTNV-1" source="XHm6aKo8EF9p3FRcwdcO-131" target="XHm6aKo8EF9p3FRcwdcO-23">
          <mxGeometry width="50" height="50" relative="1" as="geometry">
            <mxPoint x="-423" y="820" as="sourcePoint" />
            <mxPoint x="-373" y="770" as="targetPoint" />
          </mxGeometry>
        </mxCell>
        <mxCell id="XHm6aKo8EF9p3FRcwdcO-212" value="AuthProvider" style="swimlane;fontStyle=1;align=center;verticalAlign=top;childLayout=stackLayout;horizontal=1;startSize=26;horizontalStack=0;resizeParent=1;resizeParentMax=0;resizeLast=0;collapsible=1;marginBottom=0;whiteSpace=wrap;html=1;" vertex="1" parent="WIyWlLk6GJQsqaUBKTNV-1">
          <mxGeometry x="-160" y="-650" width="220" height="80" as="geometry" />
        </mxCell>
        <mxCell id="XHm6aKo8EF9p3FRcwdcO-213" value="~ isLoggedIn: boolean" style="text;strokeColor=none;fillColor=none;align=left;verticalAlign=top;spacingLeft=4;spacingRight=4;overflow=hidden;rotatable=0;points=[[0,0.5],[1,0.5]];portConstraint=eastwest;whiteSpace=wrap;html=1;" vertex="1" parent="XHm6aKo8EF9p3FRcwdcO-212">
          <mxGeometry y="26" width="220" height="24" as="geometry" />
        </mxCell>
        <mxCell id="XHm6aKo8EF9p3FRcwdcO-214" value="" style="line;strokeWidth=1;fillColor=none;align=left;verticalAlign=middle;spacingTop=-1;spacingLeft=3;spacingRight=3;rotatable=0;labelPosition=right;points=[];portConstraint=eastwest;strokeColor=inherit;" vertex="1" parent="XHm6aKo8EF9p3FRcwdcO-212">
          <mxGeometry y="50" width="220" height="8" as="geometry" />
        </mxCell>
        <mxCell id="XHm6aKo8EF9p3FRcwdcO-215" value="~ setIsLoggedIn(status: boolean): void" style="text;strokeColor=none;fillColor=none;align=left;verticalAlign=top;spacingLeft=4;spacingRight=4;overflow=hidden;rotatable=0;points=[[0,0.5],[1,0.5]];portConstraint=eastwest;whiteSpace=wrap;html=1;" vertex="1" parent="XHm6aKo8EF9p3FRcwdcO-212">
          <mxGeometry y="58" width="220" height="22" as="geometry" />
        </mxCell>
        <mxCell id="XHm6aKo8EF9p3FRcwdcO-216" value="CartProvider" style="swimlane;fontStyle=1;align=center;verticalAlign=top;childLayout=stackLayout;horizontal=1;startSize=26;horizontalStack=0;resizeParent=1;resizeParentMax=0;resizeLast=0;collapsible=1;marginBottom=0;whiteSpace=wrap;html=1;" vertex="1" parent="WIyWlLk6GJQsqaUBKTNV-1">
          <mxGeometry x="130" y="-650" width="160" height="86" as="geometry" />
        </mxCell>
        <mxCell id="XHm6aKo8EF9p3FRcwdcO-217" value="~ cart: Cart" style="text;strokeColor=none;fillColor=none;align=left;verticalAlign=top;spacingLeft=4;spacingRight=4;overflow=hidden;rotatable=0;points=[[0,0.5],[1,0.5]];portConstraint=eastwest;whiteSpace=wrap;html=1;" vertex="1" parent="XHm6aKo8EF9p3FRcwdcO-216">
          <mxGeometry y="26" width="160" height="26" as="geometry" />
        </mxCell>
        <mxCell id="XHm6aKo8EF9p3FRcwdcO-218" value="" style="line;strokeWidth=1;fillColor=none;align=left;verticalAlign=middle;spacingTop=-1;spacingLeft=3;spacingRight=3;rotatable=0;labelPosition=right;points=[];portConstraint=eastwest;strokeColor=inherit;" vertex="1" parent="XHm6aKo8EF9p3FRcwdcO-216">
          <mxGeometry y="52" width="160" height="8" as="geometry" />
        </mxCell>
        <mxCell id="XHm6aKo8EF9p3FRcwdcO-219" value="~ setCart(cart: Cart): void" style="text;strokeColor=none;fillColor=none;align=left;verticalAlign=top;spacingLeft=4;spacingRight=4;overflow=hidden;rotatable=0;points=[[0,0.5],[1,0.5]];portConstraint=eastwest;whiteSpace=wrap;html=1;" vertex="1" parent="XHm6aKo8EF9p3FRcwdcO-216">
          <mxGeometry y="60" width="160" height="26" as="geometry" />
        </mxCell>
        <mxCell id="XHm6aKo8EF9p3FRcwdcO-220" value="MovieTheatreShowtimeProvider" style="swimlane;fontStyle=1;align=center;verticalAlign=top;childLayout=stackLayout;horizontal=1;startSize=26;horizontalStack=0;resizeParent=1;resizeParentMax=0;resizeLast=0;collapsible=1;marginBottom=0;whiteSpace=wrap;html=1;" vertex="1" parent="WIyWlLk6GJQsqaUBKTNV-1">
          <mxGeometry x="370" y="-650" width="270" height="86" as="geometry" />
        </mxCell>
        <mxCell id="XHm6aKo8EF9p3FRcwdcO-221" value="~ data: MovieTheaterShowtime" style="text;strokeColor=none;fillColor=none;align=left;verticalAlign=top;spacingLeft=4;spacingRight=4;overflow=hidden;rotatable=0;points=[[0,0.5],[1,0.5]];portConstraint=eastwest;whiteSpace=wrap;html=1;" vertex="1" parent="XHm6aKo8EF9p3FRcwdcO-220">
          <mxGeometry y="26" width="270" height="26" as="geometry" />
        </mxCell>
        <mxCell id="XHm6aKo8EF9p3FRcwdcO-222" value="" style="line;strokeWidth=1;fillColor=none;align=left;verticalAlign=middle;spacingTop=-1;spacingLeft=3;spacingRight=3;rotatable=0;labelPosition=right;points=[];portConstraint=eastwest;strokeColor=inherit;" vertex="1" parent="XHm6aKo8EF9p3FRcwdcO-220">
          <mxGeometry y="52" width="270" height="8" as="geometry" />
        </mxCell>
        <mxCell id="XHm6aKo8EF9p3FRcwdcO-223" value="~ setData(data: MovieTheaterShwotime): void" style="text;strokeColor=none;fillColor=none;align=left;verticalAlign=top;spacingLeft=4;spacingRight=4;overflow=hidden;rotatable=0;points=[[0,0.5],[1,0.5]];portConstraint=eastwest;whiteSpace=wrap;html=1;" vertex="1" parent="XHm6aKo8EF9p3FRcwdcO-220">
          <mxGeometry y="60" width="270" height="26" as="geometry" />
        </mxCell>
        <mxCell id="XHm6aKo8EF9p3FRcwdcO-224" value="NavTitleProvider" style="swimlane;fontStyle=1;align=center;verticalAlign=top;childLayout=stackLayout;horizontal=1;startSize=26;horizontalStack=0;resizeParent=1;resizeParentMax=0;resizeLast=0;collapsible=1;marginBottom=0;whiteSpace=wrap;html=1;" vertex="1" parent="WIyWlLk6GJQsqaUBKTNV-1">
          <mxGeometry x="720" y="-650" width="200" height="90" as="geometry" />
        </mxCell>
        <mxCell id="XHm6aKo8EF9p3FRcwdcO-225" value="~ navTittle: String" style="text;strokeColor=none;fillColor=none;align=left;verticalAlign=top;spacingLeft=4;spacingRight=4;overflow=hidden;rotatable=0;points=[[0,0.5],[1,0.5]];portConstraint=eastwest;whiteSpace=wrap;html=1;" vertex="1" parent="XHm6aKo8EF9p3FRcwdcO-224">
          <mxGeometry y="26" width="200" height="26" as="geometry" />
        </mxCell>
        <mxCell id="XHm6aKo8EF9p3FRcwdcO-226" value="" style="line;strokeWidth=1;fillColor=none;align=left;verticalAlign=middle;spacingTop=-1;spacingLeft=3;spacingRight=3;rotatable=0;labelPosition=right;points=[];portConstraint=eastwest;strokeColor=inherit;" vertex="1" parent="XHm6aKo8EF9p3FRcwdcO-224">
          <mxGeometry y="52" width="200" height="8" as="geometry" />
        </mxCell>
        <mxCell id="XHm6aKo8EF9p3FRcwdcO-227" value="~ setNavTitle(title: String): void" style="text;strokeColor=none;fillColor=none;align=left;verticalAlign=top;spacingLeft=4;spacingRight=4;overflow=hidden;rotatable=0;points=[[0,0.5],[1,0.5]];portConstraint=eastwest;whiteSpace=wrap;html=1;" vertex="1" parent="XHm6aKo8EF9p3FRcwdcO-224">
          <mxGeometry y="60" width="200" height="30" as="geometry" />
        </mxCell>
        <mxCell id="XHm6aKo8EF9p3FRcwdcO-228" value="TokenProvider" style="swimlane;fontStyle=1;align=center;verticalAlign=top;childLayout=stackLayout;horizontal=1;startSize=26;horizontalStack=0;resizeParent=1;resizeParentMax=0;resizeLast=0;collapsible=1;marginBottom=0;whiteSpace=wrap;html=1;" vertex="1" parent="WIyWlLk6GJQsqaUBKTNV-1">
          <mxGeometry x="1280" y="-650" width="180" height="90" as="geometry" />
        </mxCell>
        <mxCell id="XHm6aKo8EF9p3FRcwdcO-229" value="~ token: String" style="text;strokeColor=none;fillColor=none;align=left;verticalAlign=top;spacingLeft=4;spacingRight=4;overflow=hidden;rotatable=0;points=[[0,0.5],[1,0.5]];portConstraint=eastwest;whiteSpace=wrap;html=1;" vertex="1" parent="XHm6aKo8EF9p3FRcwdcO-228">
          <mxGeometry y="26" width="180" height="26" as="geometry" />
        </mxCell>
        <mxCell id="XHm6aKo8EF9p3FRcwdcO-230" value="" style="line;strokeWidth=1;fillColor=none;align=left;verticalAlign=middle;spacingTop=-1;spacingLeft=3;spacingRight=3;rotatable=0;labelPosition=right;points=[];portConstraint=eastwest;strokeColor=inherit;" vertex="1" parent="XHm6aKo8EF9p3FRcwdcO-228">
          <mxGeometry y="52" width="180" height="8" as="geometry" />
        </mxCell>
        <mxCell id="XHm6aKo8EF9p3FRcwdcO-231" value="~ setToken(token: String): void" style="text;strokeColor=none;fillColor=none;align=left;verticalAlign=top;spacingLeft=4;spacingRight=4;overflow=hidden;rotatable=0;points=[[0,0.5],[1,0.5]];portConstraint=eastwest;whiteSpace=wrap;html=1;" vertex="1" parent="XHm6aKo8EF9p3FRcwdcO-228">
          <mxGeometry y="60" width="180" height="30" as="geometry" />
        </mxCell>
        <mxCell id="XHm6aKo8EF9p3FRcwdcO-232" value="PremiumProvider" style="swimlane;fontStyle=1;align=center;verticalAlign=top;childLayout=stackLayout;horizontal=1;startSize=26;horizontalStack=0;resizeParent=1;resizeParentMax=0;resizeLast=0;collapsible=1;marginBottom=0;whiteSpace=wrap;html=1;" vertex="1" parent="WIyWlLk6GJQsqaUBKTNV-1">
          <mxGeometry x="980" y="-650" width="220" height="110" as="geometry" />
        </mxCell>
        <mxCell id="XHm6aKo8EF9p3FRcwdcO-233" value="~ token: String&lt;div&gt;~ isPremium: boolean&lt;/div&gt;" style="text;strokeColor=none;fillColor=none;align=left;verticalAlign=top;spacingLeft=4;spacingRight=4;overflow=hidden;rotatable=0;points=[[0,0.5],[1,0.5]];portConstraint=eastwest;whiteSpace=wrap;html=1;" vertex="1" parent="XHm6aKo8EF9p3FRcwdcO-232">
          <mxGeometry y="26" width="220" height="34" as="geometry" />
        </mxCell>
        <mxCell id="XHm6aKo8EF9p3FRcwdcO-234" value="" style="line;strokeWidth=1;fillColor=none;align=left;verticalAlign=middle;spacingTop=-1;spacingLeft=3;spacingRight=3;rotatable=0;labelPosition=right;points=[];portConstraint=eastwest;strokeColor=inherit;" vertex="1" parent="XHm6aKo8EF9p3FRcwdcO-232">
          <mxGeometry y="60" width="220" height="8" as="geometry" />
        </mxCell>
        <mxCell id="XHm6aKo8EF9p3FRcwdcO-235" value="~ setIsPremium(status: boolean): void&lt;div&gt;~ useEffect(): void&lt;/div&gt;" style="text;strokeColor=none;fillColor=none;align=left;verticalAlign=top;spacingLeft=4;spacingRight=4;overflow=hidden;rotatable=0;points=[[0,0.5],[1,0.5]];portConstraint=eastwest;whiteSpace=wrap;html=1;" vertex="1" parent="XHm6aKo8EF9p3FRcwdcO-232">
          <mxGeometry y="68" width="220" height="42" as="geometry" />
        </mxCell>
        <mxCell id="XHm6aKo8EF9p3FRcwdcO-236" value="AuthContext" style="swimlane;fontStyle=1;align=center;verticalAlign=top;childLayout=stackLayout;horizontal=1;startSize=26;horizontalStack=0;resizeParent=1;resizeParentMax=0;resizeLast=0;collapsible=1;marginBottom=0;whiteSpace=wrap;html=1;" vertex="1" parent="WIyWlLk6GJQsqaUBKTNV-1">
          <mxGeometry x="-130" y="-840" width="160" height="34" as="geometry" />
        </mxCell>
        <mxCell id="XHm6aKo8EF9p3FRcwdcO-238" value="" style="line;strokeWidth=1;fillColor=none;align=left;verticalAlign=middle;spacingTop=-1;spacingLeft=3;spacingRight=3;rotatable=0;labelPosition=right;points=[];portConstraint=eastwest;strokeColor=inherit;" vertex="1" parent="XHm6aKo8EF9p3FRcwdcO-236">
          <mxGeometry y="26" width="160" height="8" as="geometry" />
        </mxCell>
        <mxCell id="XHm6aKo8EF9p3FRcwdcO-240" value="CartContext" style="swimlane;fontStyle=1;align=center;verticalAlign=top;childLayout=stackLayout;horizontal=1;startSize=26;horizontalStack=0;resizeParent=1;resizeParentMax=0;resizeLast=0;collapsible=1;marginBottom=0;whiteSpace=wrap;html=1;" vertex="1" parent="WIyWlLk6GJQsqaUBKTNV-1">
          <mxGeometry x="130" y="-840" width="160" height="34" as="geometry" />
        </mxCell>
        <mxCell id="XHm6aKo8EF9p3FRcwdcO-242" value="" style="line;strokeWidth=1;fillColor=none;align=left;verticalAlign=middle;spacingTop=-1;spacingLeft=3;spacingRight=3;rotatable=0;labelPosition=right;points=[];portConstraint=eastwest;strokeColor=inherit;" vertex="1" parent="XHm6aKo8EF9p3FRcwdcO-240">
          <mxGeometry y="26" width="160" height="8" as="geometry" />
        </mxCell>
        <mxCell id="XHm6aKo8EF9p3FRcwdcO-244" value="MovieTheatreShowtimeContext" style="swimlane;fontStyle=1;align=center;verticalAlign=top;childLayout=stackLayout;horizontal=1;startSize=26;horizontalStack=0;resizeParent=1;resizeParentMax=0;resizeLast=0;collapsible=1;marginBottom=0;whiteSpace=wrap;html=1;" vertex="1" parent="WIyWlLk6GJQsqaUBKTNV-1">
          <mxGeometry x="415" y="-840" width="180" height="34" as="geometry" />
        </mxCell>
        <mxCell id="XHm6aKo8EF9p3FRcwdcO-246" value="" style="line;strokeWidth=1;fillColor=none;align=left;verticalAlign=middle;spacingTop=-1;spacingLeft=3;spacingRight=3;rotatable=0;labelPosition=right;points=[];portConstraint=eastwest;strokeColor=inherit;" vertex="1" parent="XHm6aKo8EF9p3FRcwdcO-244">
          <mxGeometry y="26" width="180" height="8" as="geometry" />
        </mxCell>
        <mxCell id="XHm6aKo8EF9p3FRcwdcO-248" value="NavTitleContext" style="swimlane;fontStyle=1;align=center;verticalAlign=top;childLayout=stackLayout;horizontal=1;startSize=26;horizontalStack=0;resizeParent=1;resizeParentMax=0;resizeLast=0;collapsible=1;marginBottom=0;whiteSpace=wrap;html=1;" vertex="1" parent="WIyWlLk6GJQsqaUBKTNV-1">
          <mxGeometry x="740" y="-840" width="160" height="34" as="geometry" />
        </mxCell>
        <mxCell id="XHm6aKo8EF9p3FRcwdcO-250" value="" style="line;strokeWidth=1;fillColor=none;align=left;verticalAlign=middle;spacingTop=-1;spacingLeft=3;spacingRight=3;rotatable=0;labelPosition=right;points=[];portConstraint=eastwest;strokeColor=inherit;" vertex="1" parent="XHm6aKo8EF9p3FRcwdcO-248">
          <mxGeometry y="26" width="160" height="8" as="geometry" />
        </mxCell>
        <mxCell id="XHm6aKo8EF9p3FRcwdcO-252" value="PremiumContext" style="swimlane;fontStyle=1;align=center;verticalAlign=top;childLayout=stackLayout;horizontal=1;startSize=26;horizontalStack=0;resizeParent=1;resizeParentMax=0;resizeLast=0;collapsible=1;marginBottom=0;whiteSpace=wrap;html=1;" vertex="1" parent="WIyWlLk6GJQsqaUBKTNV-1">
          <mxGeometry x="1010" y="-840" width="160" height="34" as="geometry" />
        </mxCell>
        <mxCell id="XHm6aKo8EF9p3FRcwdcO-254" value="" style="line;strokeWidth=1;fillColor=none;align=left;verticalAlign=middle;spacingTop=-1;spacingLeft=3;spacingRight=3;rotatable=0;labelPosition=right;points=[];portConstraint=eastwest;strokeColor=inherit;" vertex="1" parent="XHm6aKo8EF9p3FRcwdcO-252">
          <mxGeometry y="26" width="160" height="8" as="geometry" />
        </mxCell>
        <mxCell id="XHm6aKo8EF9p3FRcwdcO-256" value="TokenContext" style="swimlane;fontStyle=1;align=center;verticalAlign=top;childLayout=stackLayout;horizontal=1;startSize=26;horizontalStack=0;resizeParent=1;resizeParentMax=0;resizeLast=0;collapsible=1;marginBottom=0;whiteSpace=wrap;html=1;" vertex="1" parent="WIyWlLk6GJQsqaUBKTNV-1">
          <mxGeometry x="1290" y="-840" width="160" height="34" as="geometry" />
        </mxCell>
        <mxCell id="XHm6aKo8EF9p3FRcwdcO-258" value="" style="line;strokeWidth=1;fillColor=none;align=left;verticalAlign=middle;spacingTop=-1;spacingLeft=3;spacingRight=3;rotatable=0;labelPosition=right;points=[];portConstraint=eastwest;strokeColor=inherit;" vertex="1" parent="XHm6aKo8EF9p3FRcwdcO-256">
          <mxGeometry y="26" width="160" height="8" as="geometry" />
        </mxCell>
        <mxCell id="XHm6aKo8EF9p3FRcwdcO-261" value="" style="endArrow=diamondThin;html=1;rounded=0;entryX=0.5;entryY=0;entryDx=0;entryDy=0;exitX=0.5;exitY=1;exitDx=0;exitDy=0;endFill=1;" edge="1" parent="WIyWlLk6GJQsqaUBKTNV-1" source="XHm6aKo8EF9p3FRcwdcO-236" target="XHm6aKo8EF9p3FRcwdcO-212">
          <mxGeometry width="50" height="50" relative="1" as="geometry">
            <mxPoint x="550" y="-410" as="sourcePoint" />
            <mxPoint x="600" y="-460" as="targetPoint" />
          </mxGeometry>
        </mxCell>
        <mxCell id="XHm6aKo8EF9p3FRcwdcO-263" value="" style="endArrow=diamondThin;html=1;rounded=0;entryX=0.5;entryY=0;entryDx=0;entryDy=0;exitX=0.5;exitY=1;exitDx=0;exitDy=0;endFill=1;" edge="1" parent="WIyWlLk6GJQsqaUBKTNV-1" source="XHm6aKo8EF9p3FRcwdcO-240" target="XHm6aKo8EF9p3FRcwdcO-216">
          <mxGeometry width="50" height="50" relative="1" as="geometry">
            <mxPoint x="320" y="-530" as="sourcePoint" />
            <mxPoint x="370" y="-580" as="targetPoint" />
          </mxGeometry>
        </mxCell>
        <mxCell id="XHm6aKo8EF9p3FRcwdcO-264" value="" style="endArrow=diamondThin;html=1;rounded=0;entryX=0.5;entryY=0;entryDx=0;entryDy=0;exitX=0.5;exitY=1;exitDx=0;exitDy=0;endFill=1;" edge="1" parent="WIyWlLk6GJQsqaUBKTNV-1" source="XHm6aKo8EF9p3FRcwdcO-244" target="XHm6aKo8EF9p3FRcwdcO-220">
          <mxGeometry width="50" height="50" relative="1" as="geometry">
            <mxPoint x="320" y="-530" as="sourcePoint" />
            <mxPoint x="370" y="-580" as="targetPoint" />
          </mxGeometry>
        </mxCell>
        <mxCell id="XHm6aKo8EF9p3FRcwdcO-265" value="" style="endArrow=diamondThin;html=1;rounded=0;entryX=0.5;entryY=0;entryDx=0;entryDy=0;exitX=0.5;exitY=1;exitDx=0;exitDy=0;endFill=1;" edge="1" parent="WIyWlLk6GJQsqaUBKTNV-1" source="XHm6aKo8EF9p3FRcwdcO-248" target="XHm6aKo8EF9p3FRcwdcO-224">
          <mxGeometry width="50" height="50" relative="1" as="geometry">
            <mxPoint x="900" y="-540" as="sourcePoint" />
            <mxPoint x="950" y="-590" as="targetPoint" />
          </mxGeometry>
        </mxCell>
        <mxCell id="XHm6aKo8EF9p3FRcwdcO-266" value="" style="endArrow=diamondThin;html=1;rounded=0;entryX=0.5;entryY=0;entryDx=0;entryDy=0;exitX=0.5;exitY=1;exitDx=0;exitDy=0;endFill=1;" edge="1" parent="WIyWlLk6GJQsqaUBKTNV-1" source="XHm6aKo8EF9p3FRcwdcO-252" target="XHm6aKo8EF9p3FRcwdcO-232">
          <mxGeometry width="50" height="50" relative="1" as="geometry">
            <mxPoint x="900" y="-540" as="sourcePoint" />
            <mxPoint x="950" y="-590" as="targetPoint" />
          </mxGeometry>
        </mxCell>
        <mxCell id="XHm6aKo8EF9p3FRcwdcO-267" value="" style="endArrow=diamondThin;html=1;rounded=0;entryX=0.5;entryY=0;entryDx=0;entryDy=0;exitX=0.5;exitY=1;exitDx=0;exitDy=0;endFill=1;" edge="1" parent="WIyWlLk6GJQsqaUBKTNV-1" source="XHm6aKo8EF9p3FRcwdcO-256" target="XHm6aKo8EF9p3FRcwdcO-228">
          <mxGeometry width="50" height="50" relative="1" as="geometry">
            <mxPoint x="900" y="-540" as="sourcePoint" />
            <mxPoint x="950" y="-590" as="targetPoint" />
          </mxGeometry>
        </mxCell>
        <mxCell id="XHm6aKo8EF9p3FRcwdcO-268" value="" style="endArrow=diamondThin;html=1;rounded=0;entryX=0.5;entryY=0;entryDx=0;entryDy=0;endFill=1;" edge="1" parent="WIyWlLk6GJQsqaUBKTNV-1" source="XHm6aKo8EF9p3FRcwdcO-215" target="XHm6aKo8EF9p3FRcwdcO-101">
          <mxGeometry width="50" height="50" relative="1" as="geometry">
            <mxPoint x="450" y="-520" as="sourcePoint" />
            <mxPoint x="500" y="-570" as="targetPoint" />
          </mxGeometry>
        </mxCell>
        <mxCell id="XHm6aKo8EF9p3FRcwdcO-269" value="" style="endArrow=diamondThin;html=1;rounded=0;entryX=0.5;entryY=0;entryDx=0;entryDy=0;endFill=1;" edge="1" parent="WIyWlLk6GJQsqaUBKTNV-1" source="XHm6aKo8EF9p3FRcwdcO-219" target="XHm6aKo8EF9p3FRcwdcO-101">
          <mxGeometry width="50" height="50" relative="1" as="geometry">
            <mxPoint x="430" y="-340" as="sourcePoint" />
            <mxPoint x="480" y="-390" as="targetPoint" />
          </mxGeometry>
        </mxCell>
        <mxCell id="XHm6aKo8EF9p3FRcwdcO-270" value="" style="endArrow=diamondThin;html=1;rounded=0;entryX=0.5;entryY=0;entryDx=0;entryDy=0;endFill=1;" edge="1" parent="WIyWlLk6GJQsqaUBKTNV-1" source="XHm6aKo8EF9p3FRcwdcO-223" target="XHm6aKo8EF9p3FRcwdcO-101">
          <mxGeometry width="50" height="50" relative="1" as="geometry">
            <mxPoint x="430" y="-340" as="sourcePoint" />
            <mxPoint x="480" y="-390" as="targetPoint" />
          </mxGeometry>
        </mxCell>
        <mxCell id="XHm6aKo8EF9p3FRcwdcO-271" value="" style="endArrow=diamondThin;html=1;rounded=0;entryX=0.5;entryY=0;entryDx=0;entryDy=0;endFill=1;" edge="1" parent="WIyWlLk6GJQsqaUBKTNV-1" source="XHm6aKo8EF9p3FRcwdcO-227" target="XHm6aKo8EF9p3FRcwdcO-101">
          <mxGeometry width="50" height="50" relative="1" as="geometry">
            <mxPoint x="430" y="-340" as="sourcePoint" />
            <mxPoint x="480" y="-390" as="targetPoint" />
          </mxGeometry>
        </mxCell>
        <mxCell id="XHm6aKo8EF9p3FRcwdcO-272" value="" style="endArrow=diamondThin;html=1;rounded=0;endFill=1;entryX=0.5;entryY=0;entryDx=0;entryDy=0;" edge="1" parent="WIyWlLk6GJQsqaUBKTNV-1" source="XHm6aKo8EF9p3FRcwdcO-235" target="XHm6aKo8EF9p3FRcwdcO-101">
          <mxGeometry width="50" height="50" relative="1" as="geometry">
            <mxPoint x="430" y="-340" as="sourcePoint" />
            <mxPoint x="560" y="-330" as="targetPoint" />
          </mxGeometry>
        </mxCell>
        <mxCell id="XHm6aKo8EF9p3FRcwdcO-273" value="" style="endArrow=diamondThin;html=1;rounded=0;entryX=0.5;entryY=0;entryDx=0;entryDy=0;endFill=1;" edge="1" parent="WIyWlLk6GJQsqaUBKTNV-1" source="XHm6aKo8EF9p3FRcwdcO-231" target="XHm6aKo8EF9p3FRcwdcO-101">
          <mxGeometry width="50" height="50" relative="1" as="geometry">
            <mxPoint x="430" y="-340" as="sourcePoint" />
            <mxPoint x="480" y="-390" as="targetPoint" />
          </mxGeometry>
        </mxCell>
        <mxCell id="XHm6aKo8EF9p3FRcwdcO-279" value="Contexts" style="text;html=1;align=center;verticalAlign=middle;whiteSpace=wrap;rounded=0;" vertex="1" parent="WIyWlLk6GJQsqaUBKTNV-1">
          <mxGeometry x="-190" y="-890" width="60" height="30" as="geometry" />
        </mxCell>
        <mxCell id="XHm6aKo8EF9p3FRcwdcO-281" value="" style="endArrow=none;html=1;rounded=0;entryX=0.75;entryY=1;entryDx=0;entryDy=0;exitX=0.25;exitY=0;exitDx=0;exitDy=0;" edge="1" parent="WIyWlLk6GJQsqaUBKTNV-1" source="XHm6aKo8EF9p3FRcwdcO-177" target="XHm6aKo8EF9p3FRcwdcO-24">
          <mxGeometry width="50" height="50" relative="1" as="geometry">
            <mxPoint x="990" y="1220" as="sourcePoint" />
            <mxPoint x="1040" y="1170" as="targetPoint" />
            <Array as="points">
              <mxPoint x="540" y="1050" />
            </Array>
          </mxGeometry>
        </mxCell>
        <mxCell id="XHm6aKo8EF9p3FRcwdcO-282" value="" style="endArrow=none;html=1;rounded=0;entryX=0.5;entryY=1;entryDx=0;entryDy=0;exitX=0.75;exitY=0;exitDx=0;exitDy=0;" edge="1" parent="WIyWlLk6GJQsqaUBKTNV-1" source="XHm6aKo8EF9p3FRcwdcO-177" target="XHm6aKo8EF9p3FRcwdcO-50">
          <mxGeometry width="50" height="50" relative="1" as="geometry">
            <mxPoint x="950" y="860" as="sourcePoint" />
            <mxPoint x="1000" y="810" as="targetPoint" />
            <Array as="points">
              <mxPoint x="950" y="940" />
            </Array>
          </mxGeometry>
        </mxCell>
        <mxCell id="XHm6aKo8EF9p3FRcwdcO-283" value="" style="endArrow=none;html=1;rounded=0;exitX=0.5;exitY=0;exitDx=0;exitDy=0;" edge="1" parent="WIyWlLk6GJQsqaUBKTNV-1" source="XHm6aKo8EF9p3FRcwdcO-177" target="XHm6aKo8EF9p3FRcwdcO-49">
          <mxGeometry width="50" height="50" relative="1" as="geometry">
            <mxPoint x="1260" y="1180" as="sourcePoint" />
            <mxPoint x="1310" y="1130" as="targetPoint" />
          </mxGeometry>
        </mxCell>
      </root>
    </mxGraphModel>
  </diagram>
</mxfile>
